<?xml version="1.0" encoding="UTF-8"?>
<svg width="662px" height="305px" viewBox="0 0 662 305" version="1.1" xmlns="http://www.w3.org/2000/svg" xmlns:xlink="http://www.w3.org/1999/xlink">
    <!-- Generator: Sketch 49.1 (51147) - http://www.bohemiancoding.com/sketch -->
    <title>404@2x</title>
    <desc>Created with Sketch.</desc>
    <defs>
        <polygon id="path-1" points="0.04205 0.044 255.998 0.044 255.998 256 0.04205 256"></polygon>
    </defs>
    <g id="404" stroke="none" stroke-width="1" fill="none" fill-rule="evenodd">
        <g transform="translate(-627.000000, -243.000000)">
            <g transform="translate(626.000000, 229.000000)">
                <circle id="Oval" fill="#D8D8D8" opacity="0.499433877" cx="334.5" cy="166.5" r="152.5"></circle>
                <g id="Page-1" transform="translate(160.000000, 14.000000)">
                    <g id="Group-3" transform="translate(46.000000, 25.000000)">
                        <mask id="mask-2" fill="white">
                            <use xlink:href="#path-1"></use>
                        </mask>
                        <g id="Clip-2"></g>
                        <path d="M128.978,0 C199.6585,0 256.9565,57.2975 256.9565,127.978 C256.9565,198.658 199.6585,255.956 128.978,255.956 C58.298,255.956 1,198.658 1,127.978 C1,57.2975 58.298,0 128.978,0" id="Fill-1" fill="#6592FA" mask="url(#mask-2)"></path>
                    </g>
                    <path d="M143,76.694165 C143,85.1440246 136.24805,92 127.914669,92 L62,92 C68.9292138,79.1903241 77.9387852,67.7007177 88.5666337,58 C91.1518937,60.121811 94.4447142,61.38833 98.0288247,61.38833 L127.914669,61.38833 C132.08136,61.38833 135.852692,63.0984086 138.583348,65.8693927 C141.314502,68.6403768 143,72.4667093 143,76.694165" id="Fill-4" fill="#476DBA"></path>
                    <path d="M254.312549,177.820432 L257.195525,183.692334 C257.408671,184.12688 257.821454,184.428145 258.298281,184.497049 L264.744699,185.438565 C265.945522,185.614596 266.42535,187.097786 265.556255,187.949275 L260.891058,192.520054 C260.546321,192.857532 260.389214,193.34539 260.470269,193.822183 L261.571524,200.275995 C261.776164,201.478541 260.520804,202.395412 259.447068,201.827586 L253.680616,198.781238 C253.254324,198.555917 252.744475,198.555917 252.318183,198.781238 L246.551731,201.827586 C245.477995,202.395412 244.222635,201.478541 244.427775,200.275995 L245.52903,193.822183 C245.610586,193.344384 245.453478,192.857532 245.108242,192.520054 L240.443545,187.949275 C239.57495,187.097786 240.054278,185.614093 241.254601,185.438565 L247.701519,184.497049 C248.177845,184.427642 248.590128,184.126377 248.803774,183.692334 L251.68675,177.820432 C252.224118,176.726523 253.776182,176.726523 254.312549,177.820432" id="Fill-6" fill="#F9D368"></path>
                    <path d="M135.312901,112.820432 L138.195878,118.692334 C138.409024,119.12688 138.821307,119.427642 139.298134,119.497049 L145.745057,120.438565 C146.94588,120.614596 147.425209,122.097786 146.556113,122.948772 L141.891413,127.519551 C141.546176,127.857532 141.389069,128.344887 141.470124,128.822183 L142.57138,135.275995 C142.77652,136.478541 141.521159,137.395412 140.446922,136.827586 L134.680967,133.780735 C134.254675,133.555414 133.744825,133.555414 133.318533,133.780735 L127.552077,136.827586 C126.47784,137.395412 125.222979,136.478541 125.42812,135.275995 L126.529375,128.822183 C126.610931,128.344384 126.453323,127.857532 126.108587,127.519551 L121.443887,122.948772 C120.574791,122.097786 121.05412,120.614093 122.254943,120.438565 L128.701866,119.497049 C129.178192,119.427139 129.590475,119.126377 129.804122,118.692334 L132.686599,112.820432 C133.224468,111.726523 134.775532,111.726523 135.312901,112.820432" id="Fill-8" fill="#F9D368"></path>
                    <path d="M163,157.75 C163,166.174068 156.229151,173 147.884207,173 L84.111698,173 C75.7617655,173 68.9959054,166.169035 68.9959054,157.75 C68.9959054,153.537966 67.3015716,149.725592 64.5654919,146.964716 C61.8339025,144.209377 58.0500899,142.5 53.8801129,142.5 L47,142.5 C47.8756054,131.914546 50.0284471,121.697041 53.2908878,112 L112.258295,112 C120.602739,112 127.373588,118.825932 127.373588,127.25 C127.373588,135.669035 134.139448,142.5 142.489381,142.5 L147.884207,142.5 C156.229151,142.5 163,149.325932 163,157.75" id="Fill-10" fill="#476DBA"></path>
                    <path d="M302,144 L238.027687,144 C229.631346,144 222.829698,137.169035 222.829698,128.75 C222.829698,124.537966 221.12615,120.725592 218.374691,117.964716 C215.628749,115.209377 211.823859,113.5 207.631708,113.5 L198.197989,113.5 C189.802651,113.5 183,106.669035 183,98.25 C183,94.0379658 184.698029,90.2255916 187.449991,87.464716 C190.200948,84.7093772 194.00032,83 198.197989,83 L266.326837,83 C274.717159,83 281.524827,89.8259316 281.524827,98.25 C281.524827,106.448064 287.975833,113.142621 296.073201,113.484396 C299.216938,123.197041 301.245543,133.425116 302,144" id="Fill-12" fill="#476DBA"></path>
                    <path d="M225.76612,117.634554 C207.998649,155.257544 163.309662,171.441928 125.688628,154.006396 C87.7825597,136.439796 71.1996531,90.6305648 89.0644653,52.799967 C90.9229289,48.8659291 93.0759113,45.1670129 95.4844762,41.715725 C97.7457816,38.4760467 93.9684531,34.4764748 90.6344003,36.5900697 C75.7352428,46.0354628 63.2531362,59.7060447 55.189311,76.8854443 C32.6171897,124.974356 53.0423188,182.001899 100.975006,204.735175 C148.877242,227.453444 206.086772,206.954825 228.756734,158.949457 C236.827548,141.858603 239.430795,123.585637 237.276315,106.113586 C236.794102,102.204561 231.310561,101.841873 230.248297,105.634337 C229.113152,109.687437 227.623585,113.701016 225.76612,117.634554" id="Fill-14" fill="#F9D368"></path>
                    <path d="M189,250.83325 C189,259.206325 182.202874,266 173.814856,266 L114.533351,266 C82.4864633,248.919447 58.5559282,218.643015 50,182.441955 C52.6444685,177.986093 57.508867,175 63.0699697,175 L131.142979,175 C135.337239,175 139.128512,176.694038 141.877737,179.440343 C144.626962,182.185646 146.328624,185.977209 146.328624,190.166249 C146.328624,198.539325 139.526486,205.333 131.142979,205.333 L121.717925,205.333 C113.328905,205.333 106.53228,212.121668 106.53228,220.49975 C106.53228,228.872825 113.328905,235.6665 121.717925,235.6665 L173.814856,235.6665 C178.008615,235.6665 181.805402,237.361039 184.554626,240.106843 C187.30335,242.852647 189,246.644209 189,250.83325" id="Fill-16" fill="#476DBA"></path>
                    <path d="M362.312844,50.8200669 L365.195811,56.692058 C365.408956,57.1266105 365.821738,57.4278801 366.298063,57.4967848 L372.74496,58.4383152 C373.945278,58.6143492 374.425606,60.0975613 373.556013,60.94856 L368.891331,65.5194083 C368.546596,65.8573936 368.389489,66.3447563 368.470044,66.8220599 L369.571295,73.275969 C369.776435,74.4785327 368.521079,75.3954183 367.447346,74.827583 L361.680913,71.780686 C361.254623,71.5553625 360.744775,71.5553625 360.318484,71.780686 L354.552051,74.827583 C353.478319,75.3954183 352.222963,74.4785327 352.427602,73.275969 L353.528853,66.8220599 C353.610409,66.3442533 353.453302,65.8573936 353.108567,65.5194083 L348.443885,60.94856 C347.574793,60.0975613 348.054119,58.6138463 349.254938,58.4383152 L355.701836,57.4967848 C356.17816,57.4268742 356.590442,57.1261075 356.804087,56.692058 L359.687054,50.8200669 C360.22392,49.7266444 361.775978,49.7266444 362.312844,50.8200669" id="Fill-18" fill="#F9D368"></path>
                    <path d="M14.3128445,0.820066932 L17.1958107,6.692058 C17.4089561,7.12661049 17.8217376,7.42788009 18.2980625,7.49678483 L24.7449595,8.43831522 C25.9452782,8.61434921 26.4256058,10.0975613 25.5560127,10.94856 L20.8913312,15.5194083 C20.5465961,15.8573936 20.3894889,16.3447563 20.4700439,16.8220599 L21.571295,23.275969 C21.7764349,24.4785327 20.5210787,25.3954183 19.4473464,24.827583 L13.6809135,21.780686 C13.2546227,21.5553625 12.744775,21.5553625 12.3184842,21.780686 L6.55205132,24.827583 C5.47831899,25.3954183 4.2229628,24.4785327 4.42760237,23.275969 L5.52885346,16.8220599 C5.61040908,16.3442533 5.45330193,15.8573936 5.10856681,15.5194083 L0.443885332,10.94856 C-0.425207419,10.0975613 0.0541194984,8.61384625 1.2549385,8.43831522 L7.70183551,7.49678483 C8.17816038,7.42687418 8.59044157,7.12610753 8.80408728,6.692058 L11.6870536,0.820066932 C12.2239197,-0.273355644 13.7759783,-0.273355644 14.3128445,0.820066932" id="Fill-18" fill="#F9D368"></path>
                    <path d="M296,193 C286.654975,220.883051 267.995223,244.462654 243.742363,260 C241.028506,256.072978 236.503756,253.501893 231.38746,253.501893 L222.047402,253.501893 C217.891188,253.501893 214.129338,251.806474 211.405547,249.068143 C208.686227,246.335303 207,242.548568 207,238.376419 C207,230.02064 213.734974,223.250946 222.047402,223.250946 L231.38746,223.250946 C235.543674,223.250946 239.301055,221.555527 242.024845,218.817196 C244.748636,216.084357 246.435359,212.297622 246.435359,208.125473 C246.435359,199.770193 253.17083,193 261.483258,193 L296,193 Z" id="Fill-20" fill="#476DBA"></path>
                </g>
                <path d="M140.752,202.496 L162.352,202.496 L162.352,227.552 C162.352,229.760011 161.608007,231.679992 160.12,233.312 C158.631993,234.944008 156.496014,235.76 153.712,235.76 L140.752,235.76 L140.752,284 L101.872,284 L101.872,235.76 L17.488,235.76 C14.7039861,235.76 12.1840113,234.896009 9.928,233.168 C7.67198872,231.439991 6.25600288,229.280013 5.68,226.688 L1.072,204.656 L98.128,74.192 L140.752,74.192 L140.752,202.496 Z M101.872,147.776 C101.872,144.415983 101.991999,140.792019 102.232,136.904 C102.472001,133.015981 102.831998,129.008021 103.312,124.88 L47.872,202.496 L101.872,202.496 L101.872,147.776 Z M641.296,202.496 L662.896,202.496 L662.896,227.552 C662.896,229.760011 662.152007,231.679992 660.664,233.312 C659.175993,234.944008 657.040014,235.76 654.256,235.76 L641.296,235.76 L641.296,284 L602.416,284 L602.416,235.76 L518.032,235.76 C515.247986,235.76 512.728011,234.896009 510.472,233.168 C508.215989,231.439991 506.800003,229.280013 506.224,226.688 L501.616,204.656 L598.672,74.192 L641.296,74.192 L641.296,202.496 Z M602.416,147.776 C602.416,144.415983 602.535999,140.792019 602.776,136.904 C603.016001,133.015981 603.375998,129.008021 603.856,124.88 L548.416,202.496 L602.416,202.496 L602.416,147.776 Z" id="4-4" fill="#6592FA"></path>
            </g>
        </g>
    </g>
</svg>