<?xml version="1.0" encoding="UTF-8"?>
<svg width="689px" height="220px" viewBox="0 0 689 220" version="1.1" xmlns="http://www.w3.org/2000/svg" xmlns:xlink="http://www.w3.org/1999/xlink">
    <!-- Generator: Sketch 49.1 (51147) - http://www.bohemiancoding.com/sketch -->
    <title>500@2x</title>
    <desc>Created with Sketch.</desc>
    <defs>
        <rect id="path-1" x="0" y="0" width="242" height="219"></rect>
    </defs>
    <g id="405" stroke="none" stroke-width="1" fill="none" fill-rule="evenodd">
        <g id="505" transform="translate(-594.000000, -305.000000)">
            <g id="500" transform="translate(594.000000, 238.000000)">
                <g id="Lines" transform="translate(0.000000, 282.000000)" fill="#D8D8D8">
                    <rect id="Rectangle-5" x="26" y="0" width="509" height="4" rx="2"></rect>
                    <rect id="Rectangle-5-Copy-2" x="547" y="0" width="142" height="4" rx="2"></rect>
                    <rect id="Rectangle-5-Copy" x="0" y="0" width="14" height="4" rx="2"></rect>
                </g>
                <g id="Browser" transform="translate(245.000000, 67.000000)">
                    <g id="Rectangle">
                        <use fill="#FFFFFF" fill-rule="evenodd" xlink:href="#path-1"></use>
                        <rect stroke="#6592FA" stroke-width="11" x="5.5" y="5.5" width="231" height="208"></rect>
                    </g>
                    <rect id="Rectangle-2" fill="#6592FA" x="0" y="0" width="242" height="44"></rect>
                    <ellipse id="Oval-2" fill="#FFFFFF" cx="24.5" cy="22" rx="8.5" ry="8"></ellipse>
                    <ellipse id="Oval-2-Copy" fill="#FFFFFF" cx="50.5" cy="22" rx="8.5" ry="8"></ellipse>
                    <ellipse id="Oval-2-Copy-2" fill="#FFFFFF" cx="77.5" cy="22" rx="8.5" ry="8"></ellipse>
                    <path d="M77.8458264,109.998958 L91.7495912,96.4351044 C92.0834696,96.1093884 92.0834696,95.5819892 91.7495912,95.2562733 L86.6121375,90.2444172 C86.4534785,90.0875524 86.2344543,90 86.0090196,90 C85.7814481,90 85.5645607,90.0875524 85.4037648,90.2444172 L71.5,103.808271 L57.5962352,90.2444172 C57.2746435,89.9306877 56.7073173,89.9306877 56.3878625,90.2444172 L51.2504088,95.2562733 C50.9165304,95.5819892 50.9165304,96.1093884 51.2504088,96.4351044 L65.1541736,109.998958 L51.2504088,123.562811 C50.9165304,123.888527 50.9165304,124.415926 51.2504088,124.741642 L56.3878625,129.753498 C56.5465215,129.910363 56.7655457,129.997915 56.9909804,129.997915 C57.2185519,129.997915 57.4354393,129.910363 57.5962352,129.753498 L71.5,116.189645 L85.4037648,129.753498 C85.5645607,129.910363 85.7814481,130 86.0090196,130 C86.2344543,130 86.4534785,129.910363 86.6121375,129.753498 L91.7495912,124.743727 C92.0834696,124.418011 92.0834696,123.888527 91.7495912,123.562811 L77.8458264,109.998958 Z" id="cross-remove-sign" fill="#6592FA"></path>
                    <path d="M178.845826,109.998958 L192.749591,96.4351044 C193.08347,96.1093884 193.08347,95.5819892 192.749591,95.2562733 L187.612138,90.2444172 C187.453479,90.0875524 187.234454,90 187.00902,90 C186.781448,90 186.564561,90.0875524 186.403765,90.2444172 L172.5,103.808271 L158.596235,90.2444172 C158.274643,89.9306877 157.707317,89.9306877 157.387862,90.2444172 L152.250409,95.2562733 C151.91653,95.5819892 151.91653,96.1093884 152.250409,96.4351044 L166.154174,109.998958 L152.250409,123.562811 C151.91653,123.888527 151.91653,124.415926 152.250409,124.741642 L157.387862,129.753498 C157.546521,129.910363 157.765546,129.997915 157.99098,129.997915 C158.218552,129.997915 158.435439,129.910363 158.596235,129.753498 L172.5,116.189645 L186.403765,129.753498 C186.564561,129.910363 186.781448,130 187.00902,130 C187.234454,130 187.453479,129.910363 187.612138,129.753498 L192.749591,124.743727 C193.08347,124.418011 193.08347,123.888527 192.749591,123.562811 L178.845826,109.998958 Z" id="cross-remove-sign-copy" fill="#6592FA"></path>
                    <rect id="Rectangle-4" fill="#6592FA" x="75" y="162" width="92" height="12"></rect>
                </g>
                <path d="M203.712,92.624 C203.712,95.6960154 203.232005,98.4799875 202.272,100.976 C201.311995,103.472012 199.80001,105.655991 197.736,107.528 C195.67199,109.400009 192.960017,110.839995 189.6,111.848 C186.239983,112.856005 182.208024,113.36 177.504,113.36 L127.392,113.36 L121.488,148.064 C125.42402,147.391997 129.215982,146.888002 132.864,146.552 C136.512018,146.215998 140.063983,146.048 143.52,146.048 C154.560055,146.048 164.303958,147.727983 172.752,151.088 C181.200042,154.448017 188.303971,159.031971 194.064,164.84 C199.824029,170.648029 204.167985,177.463961 207.096,185.288 C210.024015,193.112039 211.488,201.487955 211.488,210.416 C211.488,221.648056 209.49602,231.895954 205.512,241.16 C201.52798,250.424046 195.984036,258.415966 188.88,265.136 C181.775964,271.856034 173.304049,277.063982 163.464,280.76 C153.623951,284.456018 142.848059,286.304 131.136,286.304 C124.319966,286.304 117.816031,285.584007 111.624,284.144 C105.431969,282.703993 99.6240271,280.760012 94.2,278.312 C88.7759729,275.863988 83.760023,273.032016 79.152,269.816 C74.543977,266.599984 70.3680187,263.168018 66.624,259.52 L80.448,241.088 C81.8880072,239.16799 83.5679904,237.704005 85.488,236.696 C87.4080096,235.687995 89.471989,235.184 91.68,235.184 C94.5600144,235.184 97.2719873,235.975992 99.816,237.56 C102.360013,239.144008 105.143985,240.871991 108.168,242.744 C111.192015,244.616009 114.71998,246.319992 118.752,247.856 C122.78402,249.392008 127.77597,250.16 133.728,250.16 C139.68003,250.16 144.767979,249.17601 148.992,247.208 C153.216021,245.23999 156.647987,242.552017 159.288,239.144 C161.928013,235.735983 163.847994,231.752023 165.048,227.192 C166.248006,222.631977 166.848,217.760026 166.848,212.576 C166.848,202.399949 163.968029,194.648027 158.208,189.32 C152.447971,183.991973 144.288053,181.328 133.728,181.328 C124.319953,181.328 115.104045,183.103982 106.08,186.656 L78.432,179.168 L96.288,74.192 L203.712,74.192 L203.712,92.624 Z M666.24,179.024 C666.24,197.360092 664.27202,213.247933 660.336,226.688 C656.39998,240.128067 650.952035,251.263956 643.992,260.096 C637.031965,268.928044 628.776048,275.503978 619.224,279.824 C609.671952,284.144022 599.328056,286.304 588.192,286.304 C577.055944,286.304 566.760047,284.144022 557.304,279.824 C547.847953,275.503978 539.664035,268.928044 532.752,260.096 C525.839965,251.263956 520.440019,240.128067 516.552,226.688 C512.663981,213.247933 510.72,197.360092 510.72,179.024 C510.72,160.687908 512.663981,144.800067 516.552,131.36 C520.440019,117.919933 525.839965,106.784044 532.752,97.952 C539.664035,89.1199558 547.847953,82.5680214 557.304,78.296 C566.760047,74.0239786 577.055944,71.888 588.192,71.888 C599.328056,71.888 609.671952,74.0239786 619.224,78.296 C628.776048,82.5680214 637.031965,89.1199558 643.992,97.952 C650.952035,106.784044 656.39998,117.919933 660.336,131.36 C664.27202,144.800067 666.24,160.687908 666.24,179.024 Z M620.16,179.024 C620.16,164.527928 619.248009,152.648046 617.424,143.384 C615.599991,134.119954 613.176015,126.848026 610.152,121.568 C607.127985,116.287974 603.696019,112.66401 599.856,110.696 C596.015981,108.72799 592.12802,107.744 588.192,107.744 C584.25598,107.744 580.392019,108.72799 576.6,110.696 C572.807981,112.66401 569.448015,116.287974 566.52,121.568 C563.591985,126.848026 561.240009,134.119954 559.464,143.384 C557.687991,152.648046 556.8,164.527928 556.8,179.024 C556.8,193.616073 557.687991,205.519954 559.464,214.736 C561.240009,223.952046 563.591985,231.223973 566.52,236.552 C569.448015,241.880027 572.807981,245.52799 576.6,247.496 C580.392019,249.46401 584.25598,250.448 588.192,250.448 C592.12802,250.448 596.015981,249.46401 599.856,247.496 C603.696019,245.52799 607.127985,241.880027 610.152,236.552 C613.176015,231.223973 615.599991,223.952046 617.424,214.736 C619.248009,205.519954 620.16,193.616073 620.16,179.024 Z" id="5-0" fill="#6592FA"></path>
            </g>
        </g>
    </g>
</svg>