<?xml version="1.0" encoding="UTF-8"?>
<svg width="88px" height="104px" viewBox="0 0 88 104" version="1.1" xmlns="http://www.w3.org/2000/svg" xmlns:xlink="http://www.w3.org/1999/xlink">
    <!-- Generator: Sketch 49.3 (51167) - http://www.bohemiancoding.com/sketch -->
    <title>Order Successful icon@2x</title>
    <desc>Created with Sketch.</desc>
    <defs>
        <polygon id="path-1" points="0 0.0284 74.3804722 0.0284 74.3804722 82.9994 0 82.9994"></polygon>
        <polygon id="path-3" points="0.991840119 0.908366667 45.8094752 0.908366667 45.8094752 34.01356 0.991840119 34.01356"></polygon>
        <polygon id="path-5" points="0.189527059 0.188993566 48.2438353 0.188993566 48.2438353 46.6209329 0.189527059 46.6209329"></polygon>
    </defs>
    <g id="Cart-no-Existing" stroke="none" stroke-width="1" fill="none" fill-rule="evenodd">
        <g id="Review-Order/successful" transform="translate(-916.000000, -522.000000)">
            <g id="Order-Successful-icon" transform="translate(916.000000, 522.000000)">
                <g id="Group-3" transform="translate(0.000000, 21.000000)">
                    <mask id="mask-2" fill="white">
                        <use xlink:href="#path-1"></use>
                    </mask>
                    <g id="Clip-2"></g>
                    <path d="M6.40047222,6.0284 C6.24158333,6.0284 6.11019444,6.1574 6.11019444,6.3134 L6.11019444,76.7144 C6.11019444,76.8704 6.24158333,76.9994 6.40047222,76.9994 L67.9790833,76.9994 C68.1410278,76.9994 68.2693611,76.8704 68.2693611,76.7144 L68.2693611,6.3134 C68.2693611,6.1574 68.1410278,6.0284 67.9790833,6.0284 L6.40047222,6.0284 Z M67.9790833,82.9994 L6.40047222,82.9994 C2.87130556,82.9994 -0.000916666667,80.1824 -0.000916666667,76.7144 L-0.000916666667,6.3134 C-0.000916666667,2.8454 2.87130556,0.0284 6.40047222,0.0284 L67.9790833,0.0284 C71.50825,0.0284 74.3804722,2.8454 74.3804722,6.3134 L74.3804722,76.7144 C74.3804722,80.1824 71.50825,82.9994 67.9790833,82.9994 Z" id="Fill-1" fill="#6590FA" mask="url(#mask-2)"></path>
                </g>
                <g id="Group-6" transform="translate(14.000000, 0.000000)">
                    <mask id="mask-4" fill="white">
                        <use xlink:href="#path-3"></use>
                    </mask>
                    <g id="Clip-5"></g>
                    <path d="M45.8094752,34.01356 L39.7423796,34.01356 L39.7423796,23.3149933 C39.7423796,14.30296 32.4102946,6.97442667 23.4006577,6.97442667 C14.3910207,6.97442667 7.05893571,14.30296 7.05893571,23.3149933 L7.05893571,34.01356 L0.991840119,34.01356 L0.991840119,23.3149933 C0.991840119,10.9571933 11.0450175,0.90776 23.4006577,0.90776 C35.7593314,0.90776 45.8094752,10.9571933 45.8094752,23.3149933 L45.8094752,34.01356 Z" id="Fill-4" fill="#6590FA" mask="url(#mask-4)"></path>
                </g>
                <path d="M84,60 C84,71.0452231 74.8206664,80 63.498465,80 C52.1762636,80 43,71.0452231 43,60 C43,48.9547769 52.1762636,40 63.498465,40 C74.8206664,40 84,48.9547769 84,60" id="Fill-7" fill="#A4C2F7"></path>
                <g id="Group-11" transform="translate(39.000000, 37.000000)">
                    <mask id="mask-6" fill="white">
                        <use xlink:href="#path-5"></use>
                    </mask>
                    <g id="Clip-10"></g>
                    <path d="M24.2171506,6.23678768 C14.4189624,6.23678768 6.44835059,13.9386535 6.44835059,23.4064752 C6.44835059,32.8742969 14.4189624,40.5731388 24.2171506,40.5731388 C34.0153388,40.5731388 41.9859506,32.8742969 41.9859506,23.4064752 C41.9859506,13.9386535 34.0153388,6.23678768 24.2171506,6.23678768 M24.2171506,46.6209329 C10.9703506,46.6209329 0.189527059,36.2066314 0.189527059,23.4064752 C0.189527059,10.603295 10.9703506,0.188993566 24.2171506,0.188993566 C37.4639506,0.188993566 48.2447741,10.603295 48.2447741,23.4064752 C48.2447741,36.2066314 37.4639506,46.6209329 24.2171506,46.6209329" id="Fill-9" fill="#6590FA" mask="url(#mask-6)"></path>
                </g>
                <path d="M71.7320444,53.364214 L59.6373751,64.7194071 L56.4855102,59.5493393 C56.1196979,58.9531458 55.3096849,58.7482999 54.6695134,59.0876716 C54.032608,59.4301006 53.8105077,60.1852791 54.17632,60.7875874 L58.193723,67.3701751 C58.4386866,67.7737522 58.8861534,68 59.3499512,68 C59.5753177,68 59.8006842,67.9510816 60.0064536,67.8379577 C60.1240361,67.7737522 60.2318201,67.6942597 60.320007,67.6055951 C60.3232732,67.6025377 60.3330717,67.5964229 60.3363379,67.5903081 L73.6133648,55.1252778 C74.1294215,54.6391508 74.1294215,53.850341 73.6100986,53.3672714 C73.0907758,52.878087 72.2546334,52.878087 71.7320444,53.364214" id="Fill-12" fill="#FFFFFF"></path>
            </g>
        </g>
    </g>
</svg>