<?xml version="1.0" encoding="UTF-8"?>
<svg width="104px" height="104px" viewBox="0 0 104 104" version="1.1" xmlns="http://www.w3.org/2000/svg" xmlns:xlink="http://www.w3.org/1999/xlink">
    <!-- Generator: sketchtool 51.1 (57501) - http://www.bohemiancoding.com/sketch -->
    <title>9711EB7C-0C99-44CB-A632-97E4975517DA@2x</title>
    <desc>Created with sketchtool.</desc>
    <defs>
        <polygon id="path-1" points="0 0.243 24.057106 0.243 24.057106 30.6604 0 30.6604"></polygon>
        <polygon id="path-3" points="0.9974 0.763 43.743 0.763 43.743 19.002 0.9974 19.002"></polygon>
    </defs>
    <g id="Cart-no-Existing" stroke="none" stroke-width="1" fill="none" fill-rule="evenodd">
        <g id="Product/empty-cart" transform="translate(-908.000000, -522.000000)">
            <g id="Cart" transform="translate(908.000000, 521.000000)">
                <g id="Group-3" transform="translate(0.000000, 0.757000)">
                    <mask id="mask-2" fill="white">
                        <use xlink:href="#path-1"></use>
                    </mask>
                    <g id="Clip-2"></g>
                    <path d="M24.0338,27.3774 C24.2168,28.8984 23.3048,30.2954 21.9068,30.6604 L17.5288,24.8244 L15.4018,8.8144 C15.2188,7.4164 13.9428,6.3224 12.4228,6.3224 L3.0398,6.3224 C1.3378,6.3224 -0.0002,4.9844 -0.0002,3.2824 C-0.0002,1.5804 1.3378,0.2424 3.0398,0.2424 L12.4228,0.2424 C16.9218,0.2424 20.6908,3.4644 21.4198,7.9024 L24.0338,27.3774 Z" id="Fill-1" fill="#6590FA" mask="url(#mask-2)"></path>
                </g>
                <path d="M97.6773,89.7604 C97.6773,91.4634 96.3403,92.8004 94.6383,92.8004 L27.5603,92.8004 C22.5143,92.8004 18.4413,88.7274 18.4413,83.6814 C18.4413,78.6354 22.5143,74.5624 27.5603,74.5624 L30.1143,74.3194 L34.3683,77.1764 L33.0923,80.1554 L27.8643,80.6414 C25.8573,80.6414 24.5203,81.9794 24.5203,83.6814 C24.5203,85.3844 25.8573,86.7214 27.5603,86.7214 L94.6373,86.7214 C96.3403,86.7214 97.6773,88.0584 97.6773,89.7604" id="Fill-4" fill="#6590FA"></path>
                <path d="M102.0543,41.1452 L98.4073,67.3282 C97.6773,71.5222 94.3333,74.6232 90.2003,74.9882 L60.9973,77.6632 L33.5183,80.1552 L32.7283,80.1552 C28.1683,80.1552 24.3373,76.9942 23.6693,72.4952 L19.9003,43.7592 L25.0073,38.9572 C25.3113,39.3212 25.5543,39.8072 25.6153,40.2932 L29.6883,71.5822 C29.8703,73.1032 31.3903,74.1972 32.9713,74.0762 L39.4153,73.4672 L36.6803,40.9622 C36.5583,39.3212 37.7743,37.8622 39.4763,37.6792 C41.1173,37.4972 42.5763,38.7742 42.7593,40.4762 L45.4943,72.9202 L57.9583,71.7652 L57.9583,40.7192 C57.9583,39.1382 59.1133,37.8622 60.6333,37.6792 L60.9973,37.6792 C62.7003,37.6792 64.0373,39.0172 64.0373,40.7192 L64.0373,71.2182 L76.6423,70.1242 L79.4393,40.4162 C79.6213,38.7742 81.1413,37.4972 82.7833,37.6792 C84.4243,37.8622 85.6403,39.3212 85.5193,41.0232 L82.7833,69.5162 L89.6533,68.9082 C91.0513,68.7872 92.2053,67.7532 92.4503,66.3552 L96.0353,40.2932 C96.2183,38.6522 97.7393,37.4972 99.4413,37.6792 C101.0823,37.9222 102.2373,39.5032 102.0543,41.1452" id="Fill-6" fill="#73A0F9"></path>
                <path d="M102.0543,41.1452 L98.4073,67.3282 C97.6773,71.5222 94.3333,74.6232 90.2003,74.9882 L60.9973,77.6632 L60.9973,37.6792 C62.7003,37.6792 64.0373,39.0172 64.0373,40.7192 L64.0373,71.2182 L76.6423,70.1242 L79.4393,40.4162 C79.6213,38.7742 81.1413,37.4972 82.7833,37.6792 C84.4243,37.8622 85.6403,39.3212 85.5183,41.0232 L82.7833,69.5162 L89.6533,68.9082 C91.0503,68.7872 92.2053,67.7532 92.4503,66.3552 L96.0353,40.2932 C96.2183,38.6522 97.7393,37.4972 99.4413,37.6792 C101.0823,37.9222 102.2373,39.5032 102.0543,41.1452" id="Fill-8" fill="#6590FA"></path>
                <path d="M102.9869,26.5534 C102.3799,25.8854 101.5279,25.5204 100.6759,25.5204 L17.5289,25.5204 L19.8999,43.7594 L101.6299,43.7594 L103.7159,28.9864 C103.8389,28.1344 103.5339,27.2234 102.9869,26.5534" id="Fill-10" fill="#73A0F9"></path>
                <g id="Group-14" transform="translate(60.000000, 24.757000)">
                    <mask id="mask-4" fill="white">
                        <use xlink:href="#path-3"></use>
                    </mask>
                    <g id="Clip-13"></g>
                    <path d="M43.7164,4.229 L41.6294,19.002 L0.9974,19.002 L0.9974,0.763 L40.6764,0.763 C41.5284,0.763 42.3794,1.128 42.9874,1.796 C43.5334,2.466 43.8384,3.377 43.7164,4.229" id="Fill-12" fill="#6590FA" mask="url(#mask-4)"></path>
                </g>
                <path d="M97.6773,89.7604 C97.6773,91.4634 96.3403,92.8004 94.6383,92.8004 L60.9973,92.8004 L60.9973,86.7214 L94.6383,86.7214 C96.3403,86.7214 97.6773,88.0584 97.6773,89.7604" id="Fill-15" fill="#6590FA"></path>
                <path d="M76.399,104.7565 C71.371,104.7565 67.28,100.8685 67.28,95.8405 C67.28,90.8125 71.371,86.7215 76.399,86.7215 C81.427,86.7215 85.518,90.8125 85.518,95.8405 C85.518,100.8685 81.428,104.7565 76.399,104.7565" id="Fill-17" fill="#6590FA"></path>
                <path d="M76.399,98.8805 C74.722,98.8805 73.359,97.5175 73.359,95.8405 C73.359,94.1625 74.722,92.8005 76.399,92.8005 C78.077,92.8005 79.439,94.1625 79.439,95.8405 C79.439,97.5175 78.077,98.8805 76.399,98.8805" id="Fill-19" fill="#FFFFFF"></path>
                <path d="M39.7193,104.7565 C34.6913,104.7565 30.6003,100.8685 30.6003,95.8405 C30.6003,90.8125 34.6913,86.7215 39.7193,86.7215 C44.7473,86.7215 48.8383,90.8125 48.8383,95.8405 C48.8383,100.8685 44.7483,104.7565 39.7193,104.7565" id="Fill-21" fill="#73A0F9"></path>
                <path d="M39.7193,98.8805 C38.0423,98.8805 36.6793,97.5175 36.6793,95.8405 C36.6793,94.1625 38.0423,92.8005 39.7193,92.8005 C41.3963,92.8005 42.7593,94.1625 42.7593,95.8405 C42.7593,97.5175 41.3973,98.8805 39.7193,98.8805" id="Fill-23" fill="#FFFFFF"></path>
            </g>
        </g>
    </g>
</svg>