<?xml version="1.0" encoding="UTF-8"?>
<svg width="427px" height="197px" viewBox="0 0 427 197" version="1.1" xmlns="http://www.w3.org/2000/svg" xmlns:xlink="http://www.w3.org/1999/xlink">
    <!-- Generator: Sketch 49.1 (51147) - http://www.bohemiancoding.com/sketch -->
    <title>Expired Token Icon@2x</title>
    <desc>Created with Sketch.</desc>
    <defs></defs>
    <g id="Token" stroke="none" stroke-width="1" fill="none" fill-rule="evenodd">
        <g id="Expired-token" transform="translate(-743.000000, -274.000000)">
            <g id="Expired-Token-Icon" transform="translate(743.000000, 274.000000)">
                <g id="Vector-sides" transform="translate(0.000000, 27.000000)" fill="#D8D8D8">
                    <path d="M52,8.5 C52,3.825 48.1,0 43.3333333,0 L8.66666667,0 C3.9,0 0,3.825 0,8.5 C0,13.175 3.9,17 8.66666667,17 L43.3333333,17 C48.1,17 52,13.175 52,8.5" id="Fill-1"></path>
                    <path d="M97.6956522,17 L155.304348,17 C160.086957,17 164,13.175 164,8.5 C164,3.825 160.086957,0 155.304348,0 L97.6956522,0 C92.9130435,0 89,3.825 89,8.5 C89,13.175 92.9130435,17 97.6956522,17" id="Fill-3"></path>
                    <path d="M68,16 C72.4,16 76,12.4 76,8 C76,3.6 72.4,0 68,0 C63.6,0 60,3.6 60,8 C60,12.4 63.6,16 68,16" id="Fill-5"></path>
                    <path d="M146.356322,99 L69.6436782,99 C64.8896552,99 61,102.825 61,107.5 C61,112.175 64.8896552,116 69.6436782,116 L146.356322,116 C151.110345,116 155,112.175 155,107.5 C155,102.825 151.110345,99 146.356322,99" id="Fill-7"></path>
                    <path d="M42.5,99 C37.825,99 34,102.825 34,107.5 C34,112.175 37.825,116 42.5,116 C47.175,116 51,112.175 51,107.5 C51,102.825 47.175,99 42.5,99" id="Fill-9"></path>
                    <path d="M181.333333,48.3333333 L155.333333,48.3333333 C160.1,48.3333333 164,44.4333333 164,39.6666667 C164,34.9 160.1,31 155.333333,31 L42.6666667,31 C37.9,31 34,34.9 34,39.6666667 C34,44.4333333 37.9,48.3333333 42.6666667,48.3333333 L99,48.3333333 C103.766667,48.3333333 107.666667,52.2333333 107.666667,57 C107.666667,61.7666667 103.766667,65.6666667 99,65.6666667 L61.0833333,65.6666667 C56.3166667,65.6666667 52.4166667,69.5666667 52.4166667,74.3333333 C52.4166667,79.1 56.3166667,83 61.0833333,83 L155.333333,83 C160.1,83 164,79.1 164,74.3333333 C164,69.5666667 160.1,65.6666667 155.333333,65.6666667 L181.333333,65.6666667 C186.1,65.6666667 190,61.7666667 190,57 C190,52.2333333 186.1,48.3333333 181.333333,48.3333333" id="Fill-11"></path>
                </g>
                <g id="Vector-sides" transform="translate(332.000000, 126.000000) scale(-1, -1) translate(-332.000000, -126.000000) translate(237.000000, 68.000000)" fill="#D8D8D8">
                    <path d="M52,8.5 C52,3.825 48.1,0 43.3333333,0 L8.66666667,0 C3.9,0 0,3.825 0,8.5 C0,13.175 3.9,17 8.66666667,17 L43.3333333,17 C48.1,17 52,13.175 52,8.5" id="Fill-1"></path>
                    <path d="M97.6956522,17 L155.304348,17 C160.086957,17 164,13.175 164,8.5 C164,3.825 160.086957,0 155.304348,0 L97.6956522,0 C92.9130435,0 89,3.825 89,8.5 C89,13.175 92.9130435,17 97.6956522,17" id="Fill-3"></path>
                    <path d="M68,16 C72.4,16 76,12.4 76,8 C76,3.6 72.4,0 68,0 C63.6,0 60,3.6 60,8 C60,12.4 63.6,16 68,16" id="Fill-5"></path>
                    <path d="M146.356322,99 L69.6436782,99 C64.8896552,99 61,102.825 61,107.5 C61,112.175 64.8896552,116 69.6436782,116 L146.356322,116 C151.110345,116 155,112.175 155,107.5 C155,102.825 151.110345,99 146.356322,99" id="Fill-7"></path>
                    <path d="M42.5,99 C37.825,99 34,102.825 34,107.5 C34,112.175 37.825,116 42.5,116 C47.175,116 51,112.175 51,107.5 C51,102.825 47.175,99 42.5,99" id="Fill-9"></path>
                    <path d="M181.333333,48.3333333 L155.333333,48.3333333 C160.1,48.3333333 164,44.4333333 164,39.6666667 C164,34.9 160.1,31 155.333333,31 L42.6666667,31 C37.9,31 34,34.9 34,39.6666667 C34,44.4333333 37.9,48.3333333 42.6666667,48.3333333 L99,48.3333333 C103.766667,48.3333333 107.666667,52.2333333 107.666667,57 C107.666667,61.7666667 103.766667,65.6666667 99,65.6666667 L61.0833333,65.6666667 C56.3166667,65.6666667 52.4166667,69.5666667 52.4166667,74.3333333 C52.4166667,79.1 56.3166667,83 61.0833333,83 L155.333333,83 C160.1,83 164,79.1 164,74.3333333 C164,69.5666667 160.1,65.6666667 155.333333,65.6666667 L181.333333,65.6666667 C186.1,65.6666667 190,61.7666667 190,57 C190,52.2333333 186.1,48.3333333 181.333333,48.3333333" id="Fill-11"></path>
                </g>
                <g id="Vector-X" transform="translate(119.000000, 0.000000)">
                    <path d="M98.5,4 C149.418598,4 193,47.5814024 193,98.5 C193,149.418598 149.418598,193 98.5,193 C47.5814024,193 4,149.418598 4,98.5 C4,47.5814024 47.5814024,4 98.5,4" id="Fill-1" fill="#6592FA"></path>
                    <path d="M133.61585,63.38415 C138.12805,67.8925 138.12805,75.2075 133.61585,79.71585 L114.8317,98.5 L133.61585,117.28415 C138.12805,121.7925 138.12805,129.1075 133.61585,133.61585 C131.35975,135.87195 128.4068,137 125.45,137 C122.4932,137 119.54025,135.87195 117.28415,133.61585 L98.5,114.8317 L79.71585,133.61585 C77.45975,135.87195 74.5068,137 71.55,137 C68.5932,137 65.64025,135.87195 63.38415,133.61585 C58.87195,129.1075 58.87195,121.7925 63.38415,117.28415 L82.1683,98.5 L63.38415,79.71585 C58.87195,75.2075 58.87195,67.8925 63.38415,63.38415 C67.89635,58.87195 75.20365,58.87195 79.71585,63.38415 L98.5,82.1683 L117.28415,63.38415 C121.79635,58.87195 129.10365,58.87195 133.61585,63.38415" id="Fill-3" fill="#FFFFFF"></path>
                    <path d="M98.5,189.304687 C49.2788574,189.304687 7.6953125,147.721143 7.6953125,98.5 C7.6953125,49.2788574 49.2788574,7.6953125 98.5,7.6953125 C147.721143,7.6953125 189.304687,49.2788574 189.304687,98.5 C189.304687,147.721143 147.721143,189.304687 98.5,189.304687 M189.064209,60.662918 C184.004541,49.0056738 176.807115,38.4630957 167.67201,29.3279902 C158.536904,20.1928848 147.994326,12.995459 136.337082,7.93579102 C124.205807,2.66988867 111.475451,0 98.5,0 C85.5245488,0 72.7941934,2.66988867 60.662918,7.93579102 C49.0056738,12.995459 38.4630957,20.1928848 29.3279902,29.3279902 C20.1928848,38.4630957 12.995459,49.0056738 7.93579102,60.662918 C2.66988867,72.7941934 0,85.5245488 0,98.5 C0,111.475451 2.66988867,124.205807 7.93579102,136.337082 C12.995459,147.994326 20.1928848,158.536904 29.3279902,167.67201 C38.4630957,176.807115 49.0056738,184.004541 60.662918,189.064209 C72.7941934,194.330111 85.5245488,197 98.5,197 C111.475451,197 124.205807,194.330111 136.337082,189.064209 C147.994326,184.004541 158.536904,176.807115 167.67201,167.67201 C176.807115,158.536904 184.004541,147.994326 189.064209,136.337082 C194.330111,124.205807 197,111.475451 197,98.5 C197,85.5245488 194.330111,72.7941934 189.064209,60.662918" id="Fill-5" fill="#476DBA"></path>
                    <path d="M174.445775,67.3564695 C170.261465,57.6335023 164.297023,48.8606573 156.717991,41.2823944 C149.139728,33.7037465 140.367268,27.7396901 130.6443,23.5549953 C120.539052,19.2051455 109.892141,17 99,17 C84.1930329,17 68.758554,22.0562817 54.3638967,31.6221784 C52.5930047,32.7986667 52.1113991,35.188216 53.2882723,36.958723 C54.4655305,38.73 56.8554648,39.2112207 58.6252019,38.0343474 C71.7529014,29.3107793 85.7144601,24.6995305 99,24.6995305 C139.275474,24.6995305 173.300469,58.7249108 173.300469,99 C173.300469,139.275089 139.275474,173.300469 99,173.300469 C58.7249108,173.300469 24.6995305,139.275089 24.6995305,99 C24.6995305,85.71677 29.3096244,71.7548263 38.0308826,58.6248169 C39.2073709,56.8539249 38.7253803,54.4647606 36.9544883,53.2878873 C35.1832113,52.1113991 32.7940469,52.5937746 31.6175587,54.3646667 C22.0547418,68.7616338 17,84.1961127 17,99 C17,109.892141 19.2051455,120.539052 23.5546103,130.643915 C27.7389202,140.366498 33.7033615,149.139728 41.2823944,156.717606 C48.8606573,164.296638 57.6331174,170.260695 67.3560845,174.44539 C77.4613333,178.795239 88.1078592,181 99,181 C109.892141,181 120.539052,178.795239 130.643915,174.445775 C140.366883,170.261465 149.139728,164.297023 156.717606,156.717991 C164.296638,149.139728 170.260695,140.366883 174.44539,130.6443 C178.795239,120.539052 181,109.892141 181,99 C181,88.1078592 178.795239,77.4613333 174.445775,67.3564695" id="Fill-7" fill="#476DBA"></path>
                    <path d="M44,40 C41.792,40 40,41.792 40,44 C40,46.208 41.792,48 44,48 C46.208,48 48,46.208 48,44 C48,41.792 46.208,40 44,40" id="Fill-9" fill="#476DBA"></path>
                    <path d="M65.99175,120.082659 L84.8424318,101.231977 C86.3507955,99.7232273 86.3507955,97.2767727 84.8424318,95.7676364 L65.9905909,76.9157955 C64.5312955,75.4576591 63.7272727,73.5177273 63.7272727,71.4545455 C63.7272727,69.3909773 64.5312955,67.4510455 65.99175,65.99175 C67.4518182,64.5316818 69.3921364,63.7272727 71.4545455,63.7272727 C73.5169545,63.7272727 75.4568864,64.5316818 76.9169545,65.99175 L95.7676364,84.8424318 C97.2767727,86.3507955 99.7232273,86.3507955 101.232364,84.8424318 L120.083045,65.9913636 C121.542727,64.5316818 123.483045,63.7272727 125.545455,63.7272727 C127.607864,63.7272727 129.547795,64.5316818 131.009023,65.9929091 C132.468705,67.4510455 133.272727,69.3909773 133.272727,71.4545455 C133.272727,73.5177273 132.468705,75.4576591 131.007864,76.9169545 L112.157182,95.7680227 C110.648818,97.2771591 110.648818,99.7236136 112.157182,101.232364 L131.009023,120.084205 C132.468705,121.541955 133.272727,123.481886 133.272727,125.545455 C133.272727,127.608636 132.468705,129.548568 131.007864,131.007864 C129.547795,132.468318 127.607864,133.272727 125.545455,133.272727 C123.483045,133.272727 121.542727,132.468318 120.082659,131.007864 L101.231977,112.157182 C100.477409,111.403 99.4883182,111.025909 98.5,111.025909 C97.5112955,111.025909 96.5222045,111.403 95.7676364,112.157182 L76.9169545,131.007864 C75.4568864,132.468318 73.5169545,133.272727 71.4545455,133.272727 C69.3921364,133.272727 67.4518182,132.468318 65.9905909,131.006705 C64.5312955,129.548568 63.7272727,127.608636 63.7272727,125.545455 C63.7272727,123.481886 64.5312955,121.541955 65.99175,120.082659 M56,125.545455 C56,129.674523 57.6084318,133.555159 60.5274091,136.472205 C63.4475455,139.391955 67.3281818,141 71.4545455,141 C75.5805227,141 79.4611591,139.391955 82.3812955,136.472205 L98.5,120.3535 L114.618318,136.472205 C117.538455,139.391955 121.419091,141 125.545455,141 C129.671432,141 133.552068,139.391955 136.471045,136.473364 C139.391568,133.555159 141,129.674523 141,125.545455 C141,121.416 139.391568,117.535364 136.472205,114.618318 L120.3535,98.5 L136.471045,82.3824545 C139.391568,79.46425 141,75.5832273 141,71.4545455 C141,67.3254773 139.391568,63.4444545 136.472205,60.5274091 C133.552068,57.6080455 129.671818,56 125.545455,56 C121.418705,56 117.538455,57.6080455 114.618318,60.5274091 L98.5,76.6465 L82.3812955,60.5274091 C79.4611591,57.6080455 75.5809091,56 71.4545455,56 C67.3277955,56 63.4475455,57.6080455 60.5285682,60.52625 C57.6084318,63.4444545 56,67.3254773 56,71.4545455 C56,75.5832273 57.6084318,79.46425 60.5274091,82.3812955 L76.6465,98.5 L60.5285682,114.617159 C57.6084318,117.535364 56,121.416 56,125.545455" id="Fill-11" fill="#476DBA"></path>
                </g>
                <polygon id="Page-1-Copy" fill="#F9D368" points="99.7193785 166 99.7193785 172.719379 93 172.719379 93 177.315903 99.7193785 177.315903 99.7193785 183.99985 104.24554 183.99985 104.24554 177.315903 110.99985 177.315903 110.99985 172.719379 104.24554 172.719379 104.24554 166"></polygon>
                <polygon id="Page-1-Copy-2" fill="#F9D368" points="321.719379 9 321.719379 15.7193785 315 15.7193785 315 20.3159026 321.719379 20.3159026 321.719379 26.9998503 326.24554 26.9998503 326.24554 20.3159026 332.99985 20.3159026 332.99985 15.7193785 326.24554 15.7193785 326.24554 9"></polygon>
            </g>
        </g>
    </g>
</svg>