<?xml version="1.0" encoding="UTF-8"?>
<svg width="427px" height="197px" viewBox="0 0 427 197" version="1.1" xmlns="http://www.w3.org/2000/svg" xmlns:xlink="http://www.w3.org/1999/xlink">
    <!-- Generator: Sketch 49.1 (51147) - http://www.bohemiancoding.com/sketch -->
    <title>Invalid Token Icon@2x</title>
    <desc>Created with Sketch.</desc>
    <defs>
        <polygon id="path-1" points="0 0 196.999885 0 196.999885 196.999962 0 196.999962"></polygon>
    </defs>
    <g id="Token" stroke="none" stroke-width="1" fill="none" fill-rule="evenodd">
        <g id="Invalid-token" transform="translate(-744.000000, -274.000000)">
            <g id="Invalid-Token-Icon" transform="translate(744.000000, 274.000000)">
                <g id="Vector-sides" transform="translate(0.000000, 27.000000)" fill="#D8D8D8">
                    <path d="M52,8.5 C52,3.825 48.1,0 43.3333333,0 L8.66666667,0 C3.9,0 0,3.825 0,8.5 C0,13.175 3.9,17 8.66666667,17 L43.3333333,17 C48.1,17 52,13.175 52,8.5" id="Fill-1"></path>
                    <path d="M97.6956522,17 L155.304348,17 C160.086957,17 164,13.175 164,8.5 C164,3.825 160.086957,0 155.304348,0 L97.6956522,0 C92.9130435,0 89,3.825 89,8.5 C89,13.175 92.9130435,17 97.6956522,17" id="Fill-3"></path>
                    <path d="M68,16 C72.4,16 76,12.4 76,8 C76,3.6 72.4,0 68,0 C63.6,0 60,3.6 60,8 C60,12.4 63.6,16 68,16" id="Fill-5"></path>
                    <path d="M146.356322,99 L69.6436782,99 C64.8896552,99 61,102.825 61,107.5 C61,112.175 64.8896552,116 69.6436782,116 L146.356322,116 C151.110345,116 155,112.175 155,107.5 C155,102.825 151.110345,99 146.356322,99" id="Fill-7"></path>
                    <path d="M42.5,99 C37.825,99 34,102.825 34,107.5 C34,112.175 37.825,116 42.5,116 C47.175,116 51,112.175 51,107.5 C51,102.825 47.175,99 42.5,99" id="Fill-9"></path>
                    <path d="M181.333333,48.3333333 L155.333333,48.3333333 C160.1,48.3333333 164,44.4333333 164,39.6666667 C164,34.9 160.1,31 155.333333,31 L42.6666667,31 C37.9,31 34,34.9 34,39.6666667 C34,44.4333333 37.9,48.3333333 42.6666667,48.3333333 L99,48.3333333 C103.766667,48.3333333 107.666667,52.2333333 107.666667,57 C107.666667,61.7666667 103.766667,65.6666667 99,65.6666667 L61.0833333,65.6666667 C56.3166667,65.6666667 52.4166667,69.5666667 52.4166667,74.3333333 C52.4166667,79.1 56.3166667,83 61.0833333,83 L155.333333,83 C160.1,83 164,79.1 164,74.3333333 C164,69.5666667 160.1,65.6666667 155.333333,65.6666667 L181.333333,65.6666667 C186.1,65.6666667 190,61.7666667 190,57 C190,52.2333333 186.1,48.3333333 181.333333,48.3333333" id="Fill-11"></path>
                </g>
                <g id="Vector-sides" transform="translate(332.000000, 126.000000) scale(-1, -1) translate(-332.000000, -126.000000) translate(237.000000, 68.000000)" fill="#D8D8D8">
                    <path d="M52,8.5 C52,3.825 48.1,0 43.3333333,0 L8.66666667,0 C3.9,0 0,3.825 0,8.5 C0,13.175 3.9,17 8.66666667,17 L43.3333333,17 C48.1,17 52,13.175 52,8.5" id="Fill-1"></path>
                    <path d="M97.6956522,17 L155.304348,17 C160.086957,17 164,13.175 164,8.5 C164,3.825 160.086957,0 155.304348,0 L97.6956522,0 C92.9130435,0 89,3.825 89,8.5 C89,13.175 92.9130435,17 97.6956522,17" id="Fill-3"></path>
                    <path d="M68,16 C72.4,16 76,12.4 76,8 C76,3.6 72.4,0 68,0 C63.6,0 60,3.6 60,8 C60,12.4 63.6,16 68,16" id="Fill-5"></path>
                    <path d="M146.356322,99 L69.6436782,99 C64.8896552,99 61,102.825 61,107.5 C61,112.175 64.8896552,116 69.6436782,116 L146.356322,116 C151.110345,116 155,112.175 155,107.5 C155,102.825 151.110345,99 146.356322,99" id="Fill-7"></path>
                    <path d="M42.5,99 C37.825,99 34,102.825 34,107.5 C34,112.175 37.825,116 42.5,116 C47.175,116 51,112.175 51,107.5 C51,102.825 47.175,99 42.5,99" id="Fill-9"></path>
                    <path d="M181.333333,48.3333333 L155.333333,48.3333333 C160.1,48.3333333 164,44.4333333 164,39.6666667 C164,34.9 160.1,31 155.333333,31 L42.6666667,31 C37.9,31 34,34.9 34,39.6666667 C34,44.4333333 37.9,48.3333333 42.6666667,48.3333333 L99,48.3333333 C103.766667,48.3333333 107.666667,52.2333333 107.666667,57 C107.666667,61.7666667 103.766667,65.6666667 99,65.6666667 L61.0833333,65.6666667 C56.3166667,65.6666667 52.4166667,69.5666667 52.4166667,74.3333333 C52.4166667,79.1 56.3166667,83 61.0833333,83 L155.333333,83 C160.1,83 164,79.1 164,74.3333333 C164,69.5666667 160.1,65.6666667 155.333333,65.6666667 L181.333333,65.6666667 C186.1,65.6666667 190,61.7666667 190,57 C190,52.2333333 186.1,48.3333333 181.333333,48.3333333" id="Fill-11"></path>
                </g>
                <g id="Vector-!" transform="translate(118.000000, 0.000000)">
                    <path d="M98.5,4.06185567 C149.385652,4.06185567 192.938144,47.6147316 192.938144,98.5 C192.938144,149.385268 149.385652,192.938144 98.5,192.938144 C47.6147316,192.938144 4.06185567,149.385268 4.06185567,98.5 C4.06185567,47.6147316 47.6147316,4.06185567 98.5,4.06185567" id="Fill-1" fill="#6592FA"></path>
                    <g id="Group-5">
                        <mask id="mask-2" fill="white">
                            <use xlink:href="#path-1"></use>
                        </mask>
                        <g id="Clip-4"></g>
                        <path d="M98.4998846,189.304649 C49.278742,189.304649 7.69519707,147.721104 7.69519707,98.4999615 C7.69519707,49.2788189 49.278742,7.69527402 98.4998846,7.69527402 C147.721412,7.69527402 189.304572,49.2788189 189.304572,98.4999615 C189.304572,147.721104 147.721412,189.304649 98.4998846,189.304649 M189.064094,60.6628795 C184.00481,49.0056354 176.807385,38.4630572 167.671894,29.3279518 C158.536789,20.1928463 147.994596,12.9954205 136.336967,7.93575254 C124.206076,2.6698502 111.475721,-3.84765625e-05 98.4998846,-3.84765625e-05 C85.5244334,-3.84765625e-05 72.7940779,2.6698502 60.6628025,7.93575254 C49.0055584,12.9954205 38.4629803,20.1928463 29.3282596,29.3279518 C20.1927693,38.4630572 12.9953436,49.0056354 7.93567559,60.6628795 C2.66977324,72.7941549 -0.000115429687,85.5245104 -0.000115429687,98.4999615 C-0.000115429687,111.475413 2.66977324,124.205768 7.93567559,136.337044 C12.9953436,147.994288 20.1927693,158.536866 29.3282596,167.671971 C38.4629803,176.807462 49.0055584,184.004503 60.6628025,189.064171 C72.7940779,194.330458 85.5244334,196.999962 98.4998846,196.999962 C111.475721,196.999962 124.206076,194.330458 136.336967,189.064171 C147.994596,184.004503 158.536789,176.807462 167.671894,167.671971 C176.807385,158.536866 184.00481,147.994288 189.064094,136.337044 C194.330381,124.205768 196.999885,111.475413 196.999885,98.4999615 C196.999885,85.5245104 194.330381,72.7941549 189.064094,60.6628795" id="Fill-3" fill="#476DBA" mask="url(#mask-2)"></path>
                    </g>
                    <path d="M173.203666,66.4472009 C169.031993,56.7544881 163.086111,48.008941 155.531045,40.4542589 C147.975979,32.8991931 139.230816,26.9536948 129.538103,22.7820212 C119.464298,18.4460904 108.850516,16.2474227 97.992268,16.2474227 C83.2317587,16.2474227 67.8449226,21.287971 53.4954401,30.8241021 C51.7296747,31.9969296 51.2499514,34.3790434 52.4231626,36.1440413 C53.5963739,37.9098067 55.9788715,38.38953 57.7431018,37.2163187 C70.8303364,28.5202791 84.748068,23.922995 97.992268,23.922995 C138.142419,23.922995 172.061541,57.8425005 172.061541,97.992268 C172.061541,138.142036 138.142419,172.061541 97.992268,172.061541 C57.8428843,172.061541 23.922995,138.142036 23.922995,97.992268 C23.922995,84.7503707 28.5191277,70.8322553 37.2128647,57.7427181 C38.386076,55.9773364 37.9055851,53.5956063 36.1398197,52.4223951 C34.3740543,51.2495676 31.9923242,51.7304422 30.8198805,53.4958239 C21.2864359,67.8479928 16.2474227,83.2344451 16.2474227,97.992268 C16.2474227,108.850516 18.4460904,119.464298 22.7816374,129.537719 C26.953311,139.230048 32.8991931,147.975979 40.4542589,155.530277 C48.0093248,163.085727 56.7541043,169.031609 66.4472009,173.202899 C76.5210058,177.539213 87.1340196,179.737113 97.992268,179.737113 C108.850516,179.737113 119.464298,177.539213 129.537719,173.203282 C139.230432,169.031993 147.975979,163.086111 155.530661,155.530661 C163.085727,147.975979 169.031609,139.230432 173.203282,129.538103 C177.539213,119.464298 179.737113,108.850516 179.737113,97.992268 C179.737113,87.1340196 177.539213,76.520622 173.203666,66.4472009" id="Fill-6" fill="#476DBA"></path>
                    <path d="M43.6649485,39.6030928 C41.4228041,39.6030928 39.6030928,41.4228041 39.6030928,43.6649485 C39.6030928,45.907499 41.4228041,47.7268041 43.6649485,47.7268041 C45.907499,47.7268041 47.7268041,45.907499 47.7268041,43.6649485 C47.7268041,41.4228041 45.907499,39.6030928 43.6649485,39.6030928" id="Fill-8" fill="#476DBA"></path>
                    <path d="M98.7782977,112.220285 C96.0592201,112.220285 93.9607593,110.914848 92.8700252,108.543978 C92.0915389,106.851499 91.5632388,104.478684 91.2552577,101.28861 L89.780129,79.1568579 C89.4977483,74.7585924 89.3608247,71.6750998 89.3608247,69.7220007 C89.3608247,66.473189 90.2789498,63.8413092 92.0903753,61.9002687 C93.9495106,59.907493 96.384656,58.8969072 99.3290951,58.8969072 C103.992643,58.8969072 106.101189,61.2179871 107.048405,63.1652514 C108.129442,65.3902518 108.654639,68.3632723 108.654639,72.2543 C108.654639,74.350935 108.54254,76.5129196 108.321446,78.679572 L106.349435,101.355126 C106.106619,104.407889 105.568622,106.761644 104.705964,108.529974 C103.543859,110.91018 101.438417,112.220285 98.7782977,112.220285 M99.0536964,134.041237 C96.5223554,134.041237 94.2780497,133.204917 92.3843925,131.555616 C90.4065641,129.835131 89.3608247,127.365069 89.3608247,124.413054 C89.3608247,121.770282 90.3002835,119.48849 92.1532127,117.630693 C94.0049783,115.772895 96.2962181,114.830771 98.9617675,114.830771 C101.614517,114.830771 103.913514,115.765504 105.794371,117.609298 C107.665531,119.443757 108.654639,121.796344 108.654639,124.413054 C108.654639,127.321114 107.625191,129.776394 105.677618,131.512439 C103.794046,133.190525 101.565643,134.041237 99.0536964,134.041237" id="Fill-10" fill="#FFFFFF"></path>
                    <path d="M94.2067077,99.9370752 C94.474466,102.634849 94.9152734,104.655967 95.5178271,105.944652 C95.8432684,106.641695 96.4836278,107.568394 98.2694628,107.568394 C99.6051364,107.568394 100.496495,107.025223 101.075274,105.858483 C101.734731,104.527484 102.173979,102.559451 102.380157,100.010165 L104.368662,77.5081999 C104.578738,75.4828499 104.685529,73.4632702 104.685529,71.5067783 C104.685529,68.2412141 104.261871,65.7273182 103.425857,64.0343333 C102.943736,63.0587802 101.940909,61.7593249 98.822908,61.7593249 C96.8468749,61.7593249 95.3054133,62.3721231 94.1108292,63.6323408 C92.9018244,64.9071765 92.314471,66.6640185 92.314471,69.0024995 C92.314471,70.8570507 92.4497142,73.8364116 92.7283856,78.1106117 L94.2067077,99.9370752 Z M98.4534249,117.074267 C96.7155291,117.074267 95.288654,117.648212 94.0932904,118.828416 C92.8959781,120.010159 92.314471,121.403092 92.314471,123.088383 C92.314471,125.001021 92.9298864,126.497818 94.1431785,127.536459 C95.4083073,128.620877 96.8480442,129.147892 98.5461854,129.147892 C100.20847,129.147892 101.623652,128.615492 102.872022,127.520687 C104.074791,126.465505 104.685529,124.973709 104.685529,123.088383 C104.685529,121.430789 104.073232,119.999388 102.866955,118.835341 C101.638463,117.65052 100.194828,117.074267 98.4534249,117.074267 Z M98.5461854,136.072165 C95.1806932,136.072165 92.0681489,134.92889 89.544517,132.765824 C86.807302,130.421958 85.2989691,126.984826 85.2989691,123.088383 C85.2989691,119.57316 86.6245092,116.406844 89.1325511,113.93257 C89.8672301,113.20706 90.6638793,112.581568 91.5135345,112.060324 C90.5434465,111.196713 89.7421203,110.116911 89.1477514,108.845538 C88.1975406,106.812879 87.5669249,104.100872 87.2188781,100.55372 L87.2106933,100.45101 L85.7280839,78.5637669 C85.4388894,74.1314626 85.2989691,71.0070766 85.2989691,69.0024995 C85.2989691,64.8817875 86.5399334,61.483508 88.9879538,58.9015234 C91.509637,56.2410637 94.9105964,54.8350515 98.822908,54.8350515 C105.663022,54.8350515 108.593553,58.697642 109.732013,60.9999629 C111.057164,63.6846575 111.701031,67.1206358 111.701031,71.5067783 C111.701031,73.6894631 111.582937,75.9367745 111.350256,78.1871633 L109.371105,100.586418 C109.093213,104.028167 108.440382,106.756715 107.376754,108.90247 C106.795246,110.074596 106.044198,111.082078 105.154009,111.905297 C106.088629,112.44539 106.964788,113.105889 107.771181,113.883716 C110.341972,116.364914 111.701031,119.547771 111.701031,123.088383 C111.701031,126.981748 110.259345,130.303861 107.532264,132.696582 C105.014088,134.90504 101.906611,136.072165 98.5461854,136.072165 Z" id="Fill-12" fill="#476DBA"></path>
                </g>
                <polygon id="Page-1" fill="#F9D368" points="99.7193785 166 99.7193785 172.719379 93 172.719379 93 177.315903 99.7193785 177.315903 99.7193785 183.99985 104.24554 183.99985 104.24554 177.315903 110.99985 177.315903 110.99985 172.719379 104.24554 172.719379 104.24554 166"></polygon>
                <polygon id="Page-1" fill="#F9D368" points="321.719379 9 321.719379 15.7193785 315 15.7193785 315 20.3159026 321.719379 20.3159026 321.719379 26.9998503 326.24554 26.9998503 326.24554 20.3159026 332.99985 20.3159026 332.99985 15.7193785 326.24554 15.7193785 326.24554 9"></polygon>
            </g>
        </g>
    </g>
</svg>