<?xml version="1.0" encoding="utf-8"?>
<!-- Generator: Adobe Illustrator 22.0.1, SVG Export Plug-In . SVG Version: 6.00 Build 0)  -->
<svg version="1.1" id="Layer_1" xmlns="http://www.w3.org/2000/svg" xmlns:xlink="http://www.w3.org/1999/xlink" x="0px" y="0px"
	 viewBox="0 0 70.4 48.3" style="enable-background:new 0 0 70.4 48.3;" xml:space="preserve">
<style type="text/css">
	.st0{fill:#EDEDED;}
	.st1{display:none;}
	.st2{display:inline;fill:#EDEDED;}
	.st3{display:inline;fill-rule:evenodd;clip-rule:evenodd;fill:#EDEDED;}
	.st4{fill:#EF9122;}
	.st5{fill:#F26E21;}
	.st6{fill:#F44500;}
	.st7{fill:#595A5B;}
	.st8{fill:#3B3D3F;}
</style>
<g id="master_1_">
	<path class="st0" d="M66.2,48.2h-62c-2.2,0-4-1.8-4-4v-40c0-2.2,1.8-4,4-4h62c2.2,0,4,1.8,4,4v40C70.2,46.4,68.4,48.2,66.2,48.2z"
		/>
	<g class="st1">
		<path class="st2" d="M17.7,30.7L17,28.3h-4.3l-0.7,2.5H8.2l4.3-13.2h4.7l4.3,13.2H17.7z M16.3,25.4l-0.6-2.2
			c-0.1-0.5-0.3-1.1-0.5-1.9c-0.2-0.8-0.3-1.3-0.4-1.6c-0.1,0.3-0.2,0.8-0.3,1.5s-0.5,2.1-1.1,4.1L16.3,25.4L16.3,25.4z"/>
		<path class="st2" d="M28.7,30.7L26,21.3h-0.1c0.1,1.6,0.2,2.9,0.2,3.7v5.7H23V17.6h4.7l2.7,9.3h0.1l2.7-9.3h4.7v13.1h-3.3V25
			c0-0.3,0-0.6,0-1s0-1.3,0.1-2.7h-0.1L32,30.7L28.7,30.7L28.7,30.7z"/>
		<path class="st2" d="M48.1,30.7h-7.8V17.6h7.8v2.8h-4.2v2.1h3.9v2.8h-3.9v2.5h4.2V30.7z"/>
		<path class="st2" d="M62.2,30.7h-4.1l-2.6-4.1L53,30.7h-4l4.3-6.7l-4.1-6.4h3.9l2.4,4.1l2.3-4.1h4l-4.1,6.7L62.2,30.7z"/>
	</g>
	<g class="st1">
		<path class="st3" d="M18.8,20.3l-2.2-4.9h-2.8v7l-3.1-7H9.6H8.4l-3.1,7.3h1.9l0.6-1.7h1.8h1.8l0.7,1.7h3.6v-5.4l2.4,5.4h1.7
			l2.4-5.3v5.3h1.8v-7.3H21L18.8,20.3L18.8,20.3z M9.6,19.5H8.5L9.6,17V17l1.1,2.5H9.6L9.6,19.5z"/>
		<path class="st3" d="M38.7,17.4c0-1.5-1.2-1.9-2.1-1.9h-1.2H32v7.3h1.8v-2.6h1.6H36c0.6,0,0.9,0.6,0.9,1.2l0,1.4h1.8l-0.1-1.5
			c0-1.2-0.3-1.7-1.1-1.9C38.5,18.9,38.7,18.2,38.7,17.4L38.7,17.4z M36,18.6h-0.6h-1.6V17h1.6H36c0.7,0,1,0.5,1,0.8
			C36.9,18.3,36.7,18.6,36,18.6L36,18.6z"/>
		<polygon class="st3" points="39.7,22.7 41.4,22.7 41.4,15.4 39.7,15.4 39.7,22.7 		"/>
		<path class="st3" d="M59.8,15.4v5l-3-5h-2.7v6.8l-3.1-6.8h-1.1h-1.2l-2.5,5.6c0,0-0.9,0-1,0c-0.6-0.1-1.2-0.6-1.2-1.9
			c0-1.7,0.9-2.1,2.1-2.1h1.1v-1.6h-2.3c-0.8,0-2.6,0.6-2.6,3.6c-0.1,2,0.8,3.7,2.8,3.7h2.3l0.7-1.7h1.8h1.7l0.7,1.7h3.5v-5.3
			l3.2,5.3h2.5v-7.3H59.8L59.8,15.4z M49.9,19.5h-1.1l1-2.5l0,0.1l1.1,2.5H49.9L49.9,19.5z"/>
		<polygon class="st3" points="25.1,22.7 30.9,22.7 30.9,21.2 26.9,21.2 26.9,19.7 30.8,19.7 30.8,18.4 26.9,18.4 26.9,17 30.9,17 
			30.9,15.4 25.1,15.4 25.1,22.7 		"/>
		<path class="st3" d="M56.1,28.5c-0.1,0-1.1,0-1.2,0c-0.4,0-0.7-0.2-0.7-0.6c0-0.7,0.7-0.6,1.3-0.6h2.7v-1.6h-3.8
			c-1.1,0-2.1,0.7-2.1,2.1c0,1.2,0.4,2.2,2.4,2.3c0.1,0,1,0,1.2,0c0.5,0.1,0.6,0.3,0.6,0.6c0,0.7-0.7,0.7-1.2,0.7h-2.9v1.5h3.7
			c1.2,0,2.3-0.7,2.3-2.1C58.5,29.7,58.3,28.5,56.1,28.5L56.1,28.5z"/>
		<path class="st3" d="M62.8,28.5c-0.1,0-1.1,0-1.2,0c-0.4,0-0.8-0.2-0.8-0.6c0-0.7,0.7-0.6,1.3-0.6h2.7v-1.6h-3.7
			c-1.2,0-2.1,0.7-2.1,2.1c0,1.2,0.5,2.2,2.5,2.3c0.2,0,1,0,1.2,0c0.5,0.1,0.6,0.3,0.6,0.6c0,0.7-0.8,0.7-1.2,0.7h-2.9v1.5h3.7
			c1.2,0,2.3-0.7,2.3-2.1C65.2,29.7,65,28.5,62.8,28.5L62.8,28.5z"/>
		<path class="st3" d="M35.1,25.6h-1.2h-4.7h-0.4l-2,2.2l-2-2.2h-2.2h-4.8v7.2h4.8h2l2.1-2.4l2.1,2.4h0.4h3.1v-2.5h1.6h0.8
			c0.9,0,2.7,0,2.7-2.6C37.3,26.1,36,25.6,35.1,25.6L35.1,25.6z M23.6,31.4h-1h-3v-1.5h3h0.9v-1.4h-0.9h-3v-1.3h3h1l2,1.9L23.6,31.4
			L23.6,31.4z M30.5,32.2l-1.3-1.5l-1.3-1.5l1.3-1.4l1.3-1.5V32.2L30.5,32.2z M34.5,29h-0.6h-1.6v-1.7h1.6h0.6c0.7,0,1,0.4,1,0.8
			C35.5,28.5,35.2,29,34.5,29L34.5,29z"/>
		<path class="st3" d="M44.9,27.6c0-1.6-1.3-1.9-2.1-1.9h-1.2h-3.4v7.3h1.8v-2.6h1.7h0.7c0.6,0,0.8,0.6,0.9,1.2l0,1.3h1.7l-0.1-1.5
			c0-1.2-0.3-1.7-1.2-1.8C44.7,29.1,44.9,28.5,44.9,27.6L44.9,27.6z M42.1,28.8h-0.6h-1.7v-1.6h1.7h0.6c0.7,0,1,0.4,1,0.8
			C43.1,28.5,42.8,28.8,42.1,28.8L42.1,28.8z"/>
		<polygon class="st3" points="45.8,32.9 51.6,32.9 51.6,31.4 47.6,31.4 47.6,29.9 51.5,29.9 51.5,28.5 47.6,28.5 47.6,27.2 
			51.6,27.2 51.6,25.6 45.8,25.6 45.8,32.9 		"/>
	</g>
</g>
<g>
	<circle class="st4" cx="36.9" cy="24.2" r="4.7"/>
	<path class="st5" d="M32.2,24.2c0-2.6,2.1-4.7,4.7-4.7c2.6,0,4.7,2.1,4.7,4.7s-2.1,4.7-4.7,4.7"/>
	<path class="st6" d="M33.7,20.8c1.8-1.8,4.8-1.8,6.6,0c1.8,1.8,1.8,4.8,0,6.6"/>
	<path id="SVGCleanerId_0" class="st7" d="M9.7,19.7H7.1v8.9h2.5c1.4,0,2.4-0.4,3.2-1c1-0.8,1.6-2.1,1.6-3.4
		C14.5,21.5,12.6,19.7,9.7,19.7z M11.8,26.4c-0.5,0.5-1.3,0.7-2.4,0.7H8.9v-5.9h0.5c1.1,0,1.8,0.2,2.4,0.7c0.6,0.5,1,1.4,1,2.2
		C12.8,25,12.4,25.9,11.8,26.4z"/>
	<rect id="SVGCleanerId_1" x="15.3" y="19.7" class="st7" width="1.7" height="8.9"/>
	<path id="SVGCleanerId_2" class="st7" d="M21.4,23.2c-1.1-0.4-1.4-0.6-1.4-1.1c0-0.5,0.5-1,1.3-1c0.5,0,1,0.2,1.4,0.7l0.9-1.2
		c-0.7-0.6-1.6-1-2.6-1c-1.5,0-2.8,1.1-2.8,2.5c0,1.3,0.5,1.8,2.2,2.4c0.7,0.3,1,0.4,1.2,0.5c0.4,0.2,0.5,0.5,0.5,0.9
		c0,0.7-0.5,1.3-1.4,1.3s-1.5-0.5-1.9-1.2l-1.1,1.1c0.8,1.2,1.8,1.7,3.1,1.7c1.8,0,3.1-1.2,3.1-2.9C23.9,24.5,23.3,23.9,21.4,23.2z"
		/>
	<path class="st8" d="M24.4,24.2c0,2.6,2.1,4.6,4.7,4.6c0.7,0,1.4-0.2,2.2-0.5v-2.1c-0.7,0.7-1.4,1-2.1,1c-1.7,0-3-1.3-3-3.1
		c0-1.7,1.3-3.1,2.9-3.1c0.8,0,1.4,0.3,2.2,1v-2.1c-0.7-0.4-1.4-0.5-2.2-0.5C26.6,19.5,24.4,21.6,24.4,24.2z"/>
	<polygon points="45.5,25.7 43.2,19.7 41.3,19.7 45,28.9 46,28.9 49.9,19.7 48,19.7 	"/>
	<polygon points="50.6,28.6 55.6,28.6 55.6,27.1 52.4,27.1 52.4,24.7 55.5,24.7 55.5,23.2 52.4,23.2 52.4,21.3 55.6,21.3 55.6,19.7 
		50.6,19.7 	"/>
	<path class="st7" d="M60.5,24.9c1.4-0.3,2.1-1.2,2.1-2.5c0-1.6-1.2-2.6-3.2-2.6h-2.6v8.9h1.7v-3.5h0.3l2.4,3.5h2.1L60.5,24.9z
		 M59,23.8h-0.5v-2.7H59c1.1,0,1.7,0.5,1.7,1.4S60.1,23.8,59,23.8z"/>
	<g>
		<path id="SVGCleanerId_0_1_" class="st7" d="M9.7,19.7H7.1v8.9h2.5c1.4,0,2.4-0.4,3.2-1c1-0.8,1.6-2.1,1.6-3.4
			C14.5,21.5,12.6,19.7,9.7,19.7z M11.8,26.4c-0.5,0.5-1.3,0.7-2.4,0.7H8.9v-5.9h0.5c1.1,0,1.8,0.2,2.4,0.7c0.6,0.5,1,1.4,1,2.2
			C12.8,25,12.4,25.9,11.8,26.4z"/>
	</g>
	<g>
		<rect id="SVGCleanerId_1_1_" x="15.3" y="19.7" class="st7" width="1.7" height="8.9"/>
	</g>
	<g>
		<path id="SVGCleanerId_2_1_" class="st7" d="M21.4,23.2c-1.1-0.4-1.4-0.6-1.4-1.1c0-0.5,0.5-1,1.3-1c0.5,0,1,0.2,1.4,0.7l0.9-1.2
			c-0.7-0.6-1.6-1-2.6-1c-1.5,0-2.8,1.1-2.8,2.5c0,1.3,0.5,1.8,2.2,2.4c0.7,0.3,1,0.4,1.2,0.5c0.4,0.2,0.5,0.5,0.5,0.9
			c0,0.7-0.5,1.3-1.4,1.3s-1.5-0.5-1.9-1.2l-1.1,1.1c0.8,1.2,1.8,1.7,3.1,1.7c1.8,0,3.1-1.2,3.1-2.9C23.9,24.5,23.3,23.9,21.4,23.2z
			"/>
	</g>
	<path class="st7" d="M29.2,28.8c0.7,0,1.4-0.2,2.2-0.5v-2.1c-0.7,0.7-1.4,1-2.1,1c-1.7,0-3-1.3-3-3.1c0-0.9,0.4-1.6,0.9-2.3
		l-1.2-1.2c-0.9,0.8-1.5,2.1-1.5,3.4C24.4,26.8,26.5,28.8,29.2,28.8z"/>
	<path d="M60.5,24.9c1.4-0.3,2.1-1.2,2.1-2.5c0-1.6-1.2-2.6-3.2-2.6h-2.6v8.9h1.7v-3.5h0.3l2.4,3.5h2.1L60.5,24.9z M59,23.8h-0.5
		v-2.7H59c1.1,0,1.7,0.5,1.7,1.4S60.1,23.8,59,23.8z"/>
	<g>
		<polygon class="st8" points="54,27.1 52.4,27.1 52.4,25.5 50.6,23.7 50.6,28.6 55.5,28.6 		"/>
		<polygon class="st8" points="47.5,20.6 45.5,25.7 43.2,19.7 41.3,19.7 45,28.9 46,28.9 48.9,22 		"/>
	</g>
</g>
</svg>
