<?xml version="1.0" encoding="utf-8"?>
<!-- Generator: Adobe Illustrator 22.0.1, SVG Export Plug-In . SVG Version: 6.00 Build 0)  -->
<svg version="1.1" id="Layer_1" xmlns="http://www.w3.org/2000/svg" xmlns:xlink="http://www.w3.org/1999/xlink" x="0px" y="0px"
	 viewBox="0 0 70.4 48.3" style="enable-background:new 0 0 70.4 48.3;" xml:space="preserve">
<style type="text/css">
	.st0{fill:#192169;}
	.st1{fill:#FF0016;}
	.st2{fill:#FFA916;}
</style>
<g id="master">
	<path class="st0" d="M66,48H4c-2.2,0-4-1.8-4-4V4c0-2.2,1.8-4,4-4h62c2.2,0,4,1.8,4,4v40C70,46.2,68.2,48,66,48z"/>
	<g>
		<path class="st1" d="M35,14.1C32.3,11,28.2,9,23.8,9c-8.3,0-15,6.7-15,15c0,8.3,6.7,15,15,15c4.5,0,8.5-2,11.2-5.1
			c-2.3-2.6-3.8-6.1-3.8-9.9S32.7,16.7,35,14.1z"/>
		<path class="st1" d="M35,14.1c-2.3,2.6-3.8,6.1-3.8,9.9s1.4,7.3,3.8,9.9c2.3-2.6,3.8-6.1,3.8-9.9S37.3,16.7,35,14.1z"/>
	</g>
	<path class="st2" d="M46.3,9c-4.5,0-8.5,2-11.2,5.1c-0.6,0.7-1.2,1.5-1.7,2.4h3.4c0.5,0.9,1,1.9,1.3,3H32c-0.3,1-0.5,2-0.6,3h7.3
		c0.1,0.5,0.1,1,0.1,1.5c0,0.5,0,1-0.1,1.5h-7.3c0.1,1,0.3,2,0.6,3H38c-0.3,1.1-0.8,2.1-1.3,3h-3.4c0.5,0.9,1.1,1.7,1.7,2.4
		C37.7,37,41.8,39,46.2,39c8.3,0,15-6.7,15-15C61.3,15.7,54.5,9,46.3,9z"/>
</g>
</svg>
