<?xml version="1.0" encoding="utf-8"?>
<!-- Generator: Adobe Illustrator 22.0.1, SVG Export Plug-In . SVG Version: 6.00 Build 0)  -->
<svg version="1.1" id="Layer_1" xmlns="http://www.w3.org/2000/svg" xmlns:xlink="http://www.w3.org/1999/xlink" x="0px" y="0px"
	 viewBox="0 0 70.4 48.3" style="enable-background:new 0 0 70.4 48.3;" xml:space="preserve">
<style type="text/css">
	.st0{fill:#FCFCFC;}
	.st1{fill:#005098;}
	.st2{fill:#F6A500;}
	.st3{fill:#0A5296;}
	.st4{fill:#F4A428;}
</style>
<g id="visa">
	<path class="st0" d="M66.4,48.3h-62c-2.2,0-4-1.8-4-4v-40c0-2.2,1.8-4,4-4h62c2.2,0,4,1.8,4,4v40C70.4,46.5,68.6,48.3,66.4,48.3z"
		/>
	<g>
		<polygon class="st1" points="26.1,32.6 29,16 33.5,16 30.7,32.6 		"/>
		<path class="st1" d="M47.1,16.4c-0.9-0.3-2.3-0.7-4.1-0.7c-4.5,0-7.6,2.3-7.7,5.5c0,2.4,2.3,3.7,4,4.5c1.8,0.8,2.4,1.3,2.3,2.1
			c0,1.1-1.4,1.6-2.7,1.6c-1.8,0-2.8-0.3-4.3-0.9l-0.6-0.3L33.5,32c1.1,0.5,3,0.9,5.1,0.9c4.8,0,7.9-2.2,7.9-5.7
			c0-1.9-1.2-3.3-3.8-4.5c-1.6-0.8-2.6-1.3-2.5-2.1c0-0.7,0.8-1.4,2.6-1.4c1.5,0,2.6,0.3,3.4,0.6l0.4,0.2L47.1,16.4"/>
		<path class="st1" d="M58.7,16h-3.5c-1.1,0-1.9,0.3-2.4,1.4l-6.7,15.2h4.8c0,0,0.8-2,1-2.5c0.5,0,5.1,0,5.8,0
			c0.1,0.6,0.6,2.5,0.6,2.5h4.2L58.7,16 M53.2,26.7c0.4-1,1.8-4.6,1.8-4.6c0,0,0.4-1,0.6-1.6l0.3,1.4c0,0,0.9,4,1,4.8H53.2z"/>
		<path class="st1" d="M22.3,16l-4.4,11.3L17.4,25c-0.8-2.7-3.4-5.5-6.3-7l4.1,14.5l4.8,0L27.1,16H22.3"/>
		<path class="st2" d="M13.8,16H6.5l-0.1,0.3c5.7,1.4,9.5,4.7,11,8.7l-1.6-7.6C15.6,16.3,14.8,16,13.8,16"/>
	</g>
	<path class="st3" d="M70.4,10.3h-70v-6c0-2.2,1.8-4,4-4h62c2.2,0,4,1.8,4,4V10.3z"/>
	<path class="st4" d="M0.4,38.3h70l0,6c0,2.2-1.8,4-4,4h-62c-2.2,0-4-1.8-4-4V38.3z"/>
</g>
</svg>
