<?xml version="1.0" encoding="utf-8"?>
<!-- Generator: Adobe Illustrator 22.0.1, SVG Export Plug-In . SVG Version: 6.00 Build 0)  -->
<svg version="1.1" id="Layer_1" xmlns="http://www.w3.org/2000/svg" xmlns:xlink="http://www.w3.org/1999/xlink" x="0px" y="0px"
	 viewBox="0 0 266.4 64.4" style="enable-background:new 0 0 266.4 64.4;" xml:space="preserve">
<style type="text/css">
	.st0{fill:url(#SVGID_1_);}
	.st1{opacity:0.22;}
	.st2{fill:#010101;}
	.st3{fill:url(#SVGID_2_);}
	.st4{opacity:0.22;fill:#010101;}
	.st5{fill:url(#SVGID_3_);}
	.st6{fill:url(#SVGID_4_);}
	.st7{fill:#3A3A3A;}
	.st8{fill:url(#SVGID_5_);}
</style>
<g>
	<g>
		
			<linearGradient id="SVGID_1_" gradientUnits="userSpaceOnUse" x1="697.2083" y1="10.8668" x2="742.3282" y2="10.8668" gradientTransform="matrix(-0.9466 -0.3223 -0.3223 0.9466 730.2763 262.1212)">
			<stop  offset="0" style="stop-color:#231F57"/>
			<stop  offset="1" style="stop-color:#472976"/>
		</linearGradient>
		<path class="st0" d="M31,47.9l28.3,9.6c3.3,1.1,6.7-1.7,6.1-5.2l-2.6-15.7c-0.3-1.7-1.5-3.1-3.1-3.6l-28.3-9.6
			c-3.3-1.1-6.7,1.7-6.1,5.2l2.6,15.7C28.2,45.9,29.4,47.3,31,47.9z"/>
		<g class="st1">
			<path class="st2" d="M58.5,45.3l-17.5-9.5c0,0-11.5-5.7-15.8-7.7c0,0.1,0,0.3,0,0.4l2.6,15.7c0.3,1.7,1.5,3.1,3.1,3.6l8.1,2.8
				l0,0L58.5,45.3z"/>
		</g>
		
			<linearGradient id="SVGID_2_" gradientUnits="userSpaceOnUse" x1="656.02" y1="-108.1485" x2="701.1398" y2="-108.1485" gradientTransform="matrix(-0.9993 3.650319e-02 3.650319e-02 0.9993 731.051 117.2941)">
			<stop  offset="0" style="stop-color:#EE2564"/>
			<stop  offset="1" style="stop-color:#472976"/>
		</linearGradient>
		<path class="st3" d="M38.1,46.1L68.1,45c3.5-0.1,5.6-4,3.8-7l-8-13.8c-0.9-1.5-2.5-2.4-4.2-2.3L29.8,23c-3.5,0.1-5.6,4-3.8,7
			l8,13.8C34.8,45.3,36.4,46.1,38.1,46.1z"/>
		<path class="st4" d="M60.9,30.1l-31.8-5.8l-3.8,3.4c0,0.8,0.2,1.6,0.6,2.3l8,13.8c0.9,1.5,2.5,2.4,4.2,2.3l9.7-0.4h0L60.9,30.1z"
			/>
		
			<linearGradient id="SVGID_3_" gradientUnits="userSpaceOnUse" x1="484.6947" y1="-256.9969" x2="529.8146" y2="-256.9969" gradientTransform="matrix(-0.8434 0.5373 0.5373 0.8434 615.3911 -32.3156)">
			<stop  offset="0" style="stop-color:#F9ED25"/>
			<stop  offset="1" style="stop-color:#EE2564"/>
		</linearGradient>
		<path class="st5" d="M46.3,39.4l25.2-16.1c3-1.9,2.8-6.3-0.2-8L57.4,7.5c-1.5-0.8-3.3-0.8-4.8,0.1L27.4,23.8c-3,1.9-2.8,6.3,0.2,8
			l13.9,7.8C43,40.4,44.8,40.3,46.3,39.4z"/>
		
			<linearGradient id="SVGID_4_" gradientUnits="userSpaceOnUse" x1="-4.6766" y1="49.6878" x2="-1.0539" y2="49.6878" gradientTransform="matrix(0.9848 -0.1736 0.1736 0.9848 25.3178 -21.7247)">
			<stop  offset="0" style="stop-color:#231F57"/>
			<stop  offset="1" style="stop-color:#472976"/>
		</linearGradient>
		<circle class="st6" cx="31.1" cy="27.7" r="1.9"/>
	</g>
	<g>
		<g>
			<g>
				<path class="st7" d="M87.6,31.5c0.9,0,2-0.2,3-0.5l0.2,1.3c-0.9,0.3-2.2,0.6-3.4,0.6c-2.8,0-3.8-1.4-3.8-3.5v-2.9
					c0-2,0.9-3.6,3.8-3.6c2.8,0,3.6,1.6,3.6,3.6v2h-5.7v0.8C85.4,30.9,85.8,31.5,87.6,31.5z M85.4,27.2h4.1v-0.8
					c0-1.3-0.5-2.1-2-2.1s-2.1,0.7-2.1,2.1V27.2z"/>
			</g>
			<g>
				<path class="st7" d="M93.1,29.5v-3c0-2.2,0.8-3.5,3.8-3.5c0.8,0,1.8,0.1,2.3,0.3l-0.1,1.4c-0.7-0.2-1.4-0.2-2.1-0.2
					c-1.7,0-2.2,0.5-2.2,2v3.1c0,1.5,0.6,2,2.2,2c0.7,0,1.4-0.1,2.1-0.2l0.2,1.4c-0.5,0.2-1.5,0.3-2.3,0.3
					C93.8,32.9,93.1,31.7,93.1,29.5z"/>
			</g>
			<g>
				<path class="st7" d="M105.1,32.9c-2.8,0-3.9-1.6-3.9-3.6v-2.8c0-2,1.1-3.6,3.9-3.6c2.8,0,3.9,1.6,3.9,3.6v2.8
					C109.1,31.3,107.9,32.9,105.1,32.9z M105.1,24.4c-1.5,0-2.2,0.7-2.2,2.1v2.9c0,1.4,0.7,2.1,2.2,2.1c1.5,0,2.2-0.7,2.2-2.1v-2.9
					C107.4,25.1,106.6,24.4,105.1,24.4z"/>
			</g>
			<g>
				<path class="st7" d="M123.3,32.7v-7.3c0-0.6-0.3-0.9-0.9-0.9c-0.8,0-2.2,0.4-3.2,1v7.3h-1.7v-7.3c0-0.6-0.3-0.9-0.9-0.9
					c-0.7,0-2.2,0.4-3.2,1v7.3h-1.7v-9.6h1.3l0.2,0.8c1.1-0.5,2.7-1,3.9-1c1,0,1.6,0.4,1.8,1c1.1-0.6,2.8-1,4-1c1.5,0,2.1,1,2.1,2.4
					v7.4H123.3z"/>
			</g>
			<g>
				<path class="st7" d="M139.6,32.7v-7.3c0-0.6-0.3-0.9-0.9-0.9c-0.8,0-2.2,0.4-3.2,1v7.3h-1.7v-7.3c0-0.6-0.3-0.9-0.9-0.9
					c-0.7,0-2.2,0.4-3.2,1v7.3H128v-9.6h1.3l0.2,0.8c1.1-0.5,2.7-1,3.9-1c1,0,1.6,0.4,1.8,1c1.1-0.6,2.8-1,4-1c1.5,0,2.1,1,2.1,2.4
					v7.4H139.6z"/>
			</g>
			<g>
				<path class="st7" d="M147.8,31.5c0.9,0,2-0.2,3-0.5l0.2,1.3c-0.9,0.3-2.2,0.6-3.4,0.6c-2.8,0-3.8-1.4-3.8-3.5v-2.9
					c0-2,0.9-3.6,3.8-3.6c2.8,0,3.6,1.6,3.6,3.6v2h-5.7v0.8C145.5,30.9,145.9,31.5,147.8,31.5z M145.5,27.2h4.1v-0.8
					c0-1.3-0.5-2.1-2-2.1s-2.1,0.7-2.1,2.1V27.2z"/>
			</g>
			<g>
				<path class="st7" d="M158.2,24.5c-0.9,0.4-2,1.1-2.7,1.7v6.6h-1.7v-9.6h1.4l0.1,1.3c0.7-0.6,1.7-1.1,2.6-1.5L158.2,24.5z"/>
			</g>
			<g>
				<path class="st7" d="M159.3,29.5v-3c0-2.2,0.8-3.5,3.8-3.5c0.8,0,1.8,0.1,2.3,0.3l-0.1,1.4c-0.7-0.2-1.4-0.2-2.1-0.2
					c-1.7,0-2.2,0.5-2.2,2v3.1c0,1.5,0.6,2,2.2,2c0.7,0,1.4-0.1,2.1-0.2l0.2,1.4c-0.5,0.2-1.5,0.3-2.3,0.3
					C160,32.9,159.3,31.7,159.3,29.5z"/>
			</g>
			<g>
				<path class="st7" d="M171.4,31.5c0.9,0,2-0.2,3-0.5l0.2,1.3c-0.9,0.3-2.2,0.6-3.4,0.6c-2.8,0-3.8-1.4-3.8-3.5v-2.9
					c0-2,0.9-3.6,3.8-3.6c2.8,0,3.6,1.6,3.6,3.6v2h-5.7v0.8C169.1,30.9,169.5,31.5,171.4,31.5z M169.1,27.2h4.1v-0.8
					c0-1.3-0.5-2.1-2-2.1c-1.6,0-2.1,0.7-2.1,2.1V27.2z"/>
			</g>
		</g>
		<g>
			<g>
				<path class="st7" d="M90.3,39.5l-2.9,6.9h-0.3l-2.9-6.9v6.9h-0.7v-7.8h1l2.7,6.5l2.7-6.5h1v7.8h-0.7V39.5z"/>
			</g>
			<g>
				<path class="st7" d="M104.8,44.5h-4.2l-0.8,1.9h-0.8l3.2-7.8h0.8l3.2,7.8h-0.8L104.8,44.5z M100.8,43.9h3.7l-1.9-4.6L100.8,43.9
					z"/>
			</g>
			<g>
				<path class="st7" d="M114.2,44.8c0.5,0.6,1.3,1.1,2.4,1.1c1.6,0,2.1-0.9,2.1-1.6c0-1.1-1-1.4-2.1-1.7c-1.2-0.3-2.5-0.7-2.5-2.1
					c0-1.3,1.2-2.1,2.6-2.1c1.2,0,2,0.4,2.7,1.1l-0.4,0.5c-0.6-0.7-1.4-1-2.2-1c-1,0-1.8,0.6-1.8,1.4c0,0.9,1,1.2,2,1.5
					c1.3,0.4,2.7,0.8,2.7,2.3c0,1-0.7,2.2-2.8,2.2c-1.3,0-2.3-0.5-2.9-1.2L114.2,44.8z"/>
			</g>
			<g>
				<path class="st7" d="M129.9,39.2h-2.6v-0.6h5.8v0.6h-2.6v7.2h-0.7V39.2z"/>
			</g>
			<g>
				<path class="st7" d="M141.4,38.6h5v0.6h-4.3v2.9h4.2v0.6h-4.2v3.1h4.3v0.6h-5V38.6z"/>
			</g>
			<g>
				<path class="st7" d="M157.4,43.2h-1.7v3.2H155v-7.8h2.9c1.3,0,2.4,0.9,2.4,2.3c0,1.4-1,2.2-2.2,2.3l2.3,3.3h-0.8L157.4,43.2z
					 M157.8,39.2h-2.2v3.4h2.2c1,0,1.7-0.7,1.7-1.7C159.6,39.9,158.9,39.2,157.8,39.2z"/>
			</g>
			<g>
				<path class="st7" d="M171,43.1l-3.1-4.5h0.8l2.6,3.8l2.6-3.8h0.8l-3.1,4.5v3.3H171V43.1z"/>
			</g>
		</g>
		<g>
			<line class="st7" x1="183.3" y1="15.8" x2="183.3" y2="52.1"/>
			<rect x="182.8" y="15.8" class="st7" width="1.1" height="36.3"/>
		</g>
		<g>
			<g>
				<path class="st7" d="M189.2,23h1V46h-1V23z"/>
			</g>
			<g>
				<path class="st7" d="M195.7,25.4c0-0.6,0.5-1,1-1c0.6,0,1,0.5,1,1c0,0.6-0.4,1-1,1C196.2,26.4,195.7,26,195.7,25.4z M196.2,29.3
					h1V46h-1V29.3z"/>
			</g>
			<g>
				<path class="st7" d="M200.6,29.3h1.2l6.6,15.5l6.5-15.5h1.2L209,46h-1.2L200.6,29.3z"/>
			</g>
			<g>
				<path class="st7" d="M226.5,28.4c5.1,0,7.8,4.1,7.8,8.8v0.3h-14.4c0.1,4.1,2.8,7.5,7,7.5c2.4,0,4.3-0.9,5.8-2.5l0.6,0.7
					c-1.7,1.8-3.6,2.8-6.4,2.8c-4.8,0-8.2-3.7-8.2-8.8C218.6,32.3,222,28.4,226.5,28.4z M219.8,36.5h13.3c0-3.2-2.1-7.2-6.7-7.2
					C222.1,29.3,219.9,33.3,219.8,36.5z"/>
			</g>
		</g>
	</g>
	<linearGradient id="SVGID_5_" gradientUnits="userSpaceOnUse" x1="267.0145" y1="22.951" x2="267.2812" y2="22.951">
		<stop  offset="0" style="stop-color:#EE2564"/>
		<stop  offset="1" style="stop-color:#472976"/>
	</linearGradient>
	<circle class="st8" cx="237.8" cy="23" r="3.6"/>
</g>
</svg>
