<?xml version="1.0" encoding="UTF-8"?>
<svg width="249px" height="143px" viewBox="0 0 249 143" version="1.1" xmlns="http://www.w3.org/2000/svg" xmlns:xlink="http://www.w3.org/1999/xlink">
    <!-- Generator: Sketch 49.3 (51167) - http://www.bohemiancoding.com/sketch -->
    <title>FunnelFlux</title>
    <desc>Created with Sketch.</desc>
    <defs>
        <polygon id="path-1" points="0.339115385 0.185171171 49.8852692 0.185171171 49.8852692 42.9573486 0.339115385 42.9573486"></polygon>
        <polygon id="path-3" points="0 0.0178447917 25.7089164 0.0178447917 25.7089164 36.9438448 0 36.9438448"></polygon>
        <polygon id="path-5" points="0.165136765 0.0126958904 26.8105632 0.0126958904 26.8105632 28 0.165136765 28"></polygon>
        <polygon id="path-7" points="0.269480702 0.0687521739 21.6522456 0.0687521739 21.6522456 26.6637522 0.269480702 26.6637522"></polygon>
    </defs>
    <g id="_-_-product-Shop" stroke="none" stroke-width="1" fill="none" fill-rule="evenodd">
        <g id="Product-shop-page" transform="translate(-836.000000, -151.000000)">
            <g id="Funnel-Flux" transform="translate(836.000000, 151.000000)">
                <path d="M122.927696,43 C122.927696,23.7619215 118.622514,16.7115445 107.39535,12.3884419 L74,0 L74,17.9183169 C74,21.7246196 76.9821672,25.9331798 80.7523743,27.3189489 L123,42.8695381 L123,43 L122.927696,43 Z" id="Fill-1" fill="#FEFEFE"></path>
                <g id="Group-5" transform="translate(125.000000, 0.000000)">
                    <mask id="mask-2" fill="white">
                        <use xlink:href="#path-1"></use>
                    </mask>
                    <g id="Clip-4"></g>
                    <path d="M16.8906538,12.2092495 C5.39988462,16.4155018 0.339115385,23.4783486 0.339115385,42.9220964 L0.339115385,42.9573486 L42.8618077,27.4413216 C46.6321923,26.058736 49.8852692,21.8598441 49.8852692,18.0634477 L49.8852692,0.185132432 L16.8906538,12.2092495 Z" id="Fill-3" fill="#FEFEFE" mask="url(#mask-2)"></path>
                </g>
                <path d="M121.929049,71.4432348 C121.929049,51.0785381 116.886248,44.7993779 105.940555,40.6143079 L83,32 L83,49.9424572 C83,53.7534992 85.770861,57.9681182 89.4705,59.3545879 L100.629424,63.6251944 L100.629424,80.1874028 C100.629424,83.9984448 103.764852,88.2130638 107.464113,89.6006998 L122,95 L122,71.4432348 L121.929049,71.4432348 Z" id="Fill-6" fill="#FEFEFE"></path>
                <path d="M146.661913,39.2080761 C132.529778,44.8284497 126,50.5760407 126,71.6303046 L126,95 L140.707943,89.6301941 C144.451082,88.2501381 147.621849,84.0585419 147.621849,80.2683181 L147.621849,63.4528252 L159.183081,59.2067073 C162.925074,57.8278114 166,53.6362152 166,49.8459914 L166,32 C166,32 149.910956,37.9165695 146.661913,39.2080761" id="Fill-8" fill="#FEFEFE"></path>
                <g id="Group-12" transform="translate(0.000000, 105.000000)">
                    <mask id="mask-4" fill="white">
                        <use xlink:href="#path-3"></use>
                    </mask>
                    <g id="Clip-11"></g>
                    <path d="M11.1364985,14.051251 L22.0522299,14.051251 L22.0522299,22.4710635 L11.1364985,22.4710635 L11.1364985,36.9438448 L-3.88059701e-05,36.9438448 L-3.88059701e-05,0.0178447917 L25.4869463,0.0178447917 C25.5614537,0.752834375 25.6161701,1.33905313 25.6542,1.77842813 C25.6906776,2.21934479 25.7089164,2.75199063 25.7089164,3.37443854 C25.7089164,3.99919896 25.6161701,4.61316771 25.4322299,5.21865729 C25.2467373,5.82414688 24.9234836,6.36565729 24.4628567,6.84241771 C23.9995134,7.31956354 23.3813343,7.71461563 22.605991,8.02564688 C21.8306478,8.33667813 20.8515731,8.49315729 19.6699313,8.49315729 L11.1364985,8.49315729 L11.1364985,14.051251 Z" id="Fill-10" fill="#FEFEFE" mask="url(#mask-4)"></path>
                </g>
                <path d="M53,142.509126 L44.6445349,142.509126 C43.6576282,142.509126 43.004733,142.310102 42.6830628,141.908998 C42.3605963,141.509423 42.2005573,140.783234 42.2005573,139.726995 C41.7451232,140.491766 40.9007387,141.227504 39.671385,141.936503 C38.4380502,142.645883 36.7807316,143 34.6966426,143 C32.3103906,143 30.4528243,142.453735 29.1259344,141.364261 C27.7998408,140.272878 26.9092759,138.836545 26.4554342,137.055263 C26.3415756,136.655688 26.2551864,136.200722 26.1990534,135.691893 C26.1425222,135.183065 26.1039059,134.654754 26.0851949,134.110017 C26.0664838,133.563752 26.0473747,133.038497 26.0286637,132.528141 C26.0087583,132.019312 26,131.582301 26,131.218633 L26,116.382767 C26.947096,116.201698 27.7898881,116.092445 28.5291724,116.05539 C29.2684567,116.020628 29.8839298,116.001146 30.3763878,116.001146 C31.2860618,116.001146 32.1567214,116.082895 32.9919494,116.246392 C33.8251869,116.410654 34.5728314,116.692572 35.2360773,117.092148 C35.8989251,117.493251 36.4303977,118.065492 36.8281063,118.809635 C37.225815,119.555306 37.4248684,120.49236 37.4248684,121.618124 L37.4248684,131.981876 C37.4248684,132.782555 37.5474853,133.418973 37.7939134,133.891511 C38.0403415,134.364431 38.5805724,134.600891 39.4150042,134.600891 C40.2478436,134.600891 40.815942,134.428226 41.1196974,134.082513 C41.4222586,133.7368 41.5751316,133.364728 41.5751316,132.964007 L41.5751316,116.382767 C42.5218295,116.200552 43.3650197,116.091299 44.104304,116.05539 C44.8435883,116.0191 45.4590614,116 45.9515194,116 C46.8611934,116 47.7418056,116.082895 48.5945504,116.246392 C49.4476932,116.410654 50.1957358,116.700976 50.8398726,117.118888 C51.4840094,117.537564 52.0043349,118.119737 52.4020436,118.865025 C52.7997523,119.610314 53,120.564559 53,121.727377 L53,142.509126 Z" id="Fill-13" fill="#FEFEFE"></path>
                <path d="M56,115.962333 C56.6441083,115.820043 57.3069268,115.71295 57.9888535,115.641431 C58.6715764,115.57066 59.4856688,115.533964 60.4339172,115.533964 C62.138535,115.533964 63.5318471,115.775109 64.611465,116.25665 C65.6922771,116.737817 66.4211783,117.388234 66.8001592,118.208277 C67.2555732,117.459005 68.0971338,116.737817 69.3292197,116.042465 C70.5613057,115.347114 72.218551,115 74.3021497,115 C76.6898885,115 78.5461783,115.533964 79.8730096,116.603389 C81.2002389,117.672815 82.0907643,119.081117 82.544586,120.827171 C82.6584395,121.219968 82.7436306,121.665936 82.7997611,122.163579 C82.8574841,122.663468 82.8949045,123.179832 82.9136146,123.714171 C82.9323248,124.249258 82.951035,124.765997 82.9709395,125.264763 C82.9900478,125.764652 83,126.191898 83,126.548373 L83,141.304649 C81.8630573,141.767093 80.4609873,142 78.7937898,142 C77.0501592,142 75.6954618,141.803789 74.7285032,141.411741 C73.7631369,141.020068 73.0429936,140.50258 72.5688694,139.861149 C72.0947452,139.220093 71.8105096,138.480182 71.7169586,137.64254 C71.6218153,136.804898 71.5744427,135.922323 71.5744427,134.995562 L71.5744427,125.799101 C71.5744427,125.016503 71.4792994,124.391923 71.2906051,123.928355 C71.1003185,123.465911 70.5887739,123.233004 69.754379,123.233004 C68.9215764,123.233004 68.3248408,123.402255 67.9645701,123.741131 C67.6042994,124.080007 67.4243631,124.445844 67.4243631,124.837891 L67.4243631,141.518833 L56,141.518833 L56,115.962333 Z" id="Fill-15" fill="#FEFEFE"></path>
                <path d="M86,115.962333 C86.6441083,115.820043 87.3069268,115.71295 87.9888535,115.641431 C88.6715764,115.57066 89.4856688,115.533964 90.4339172,115.533964 C92.138535,115.533964 93.5318471,115.775109 94.611465,116.25665 C95.6922771,116.737817 96.4211783,117.388234 96.8001592,118.208277 C97.2555732,117.459005 98.0971338,116.737817 99.3292197,116.042465 C100.561306,115.347114 102.218551,115 104.30215,115 C106.689889,115 108.546178,115.533964 109.87301,116.603389 C111.200239,117.672815 112.090764,119.081117 112.544984,120.827171 C112.658439,121.219968 112.743631,121.665936 112.799761,122.163579 C112.857484,122.663468 112.894904,123.179832 112.913615,123.714171 C112.932325,124.249258 112.951035,124.765997 112.971338,125.264763 C112.990048,125.764652 113,126.191898 113,126.548373 L113,141.304649 C111.863057,141.767093 110.460987,142 108.79379,142 C107.050159,142 105.695462,141.803789 104.728503,141.411741 C103.763137,141.020068 103.042994,140.50258 102.568869,139.861149 C102.094745,139.220093 101.81051,138.480182 101.716959,137.64254 C101.621815,136.804898 101.574443,135.922323 101.574443,134.995562 L101.574443,125.799101 C101.574443,125.016503 101.479299,124.391923 101.290605,123.928355 C101.100318,123.465911 100.588774,123.233004 99.754379,123.233004 C98.9215764,123.233004 98.3248408,123.402255 97.9645701,123.741131 C97.6042994,124.080007 97.4243631,124.445844 97.4243631,124.837891 L97.4243631,141.518833 L86,141.518833 L86,115.962333 Z" id="Fill-17" fill="#FEFEFE"></path>
                <g id="Group-21" transform="translate(116.000000, 115.000000)">
                    <mask id="mask-6" fill="white">
                        <use xlink:href="#path-5"></use>
                    </mask>
                    <g id="Clip-20"></g>
                    <path d="M17.2859162,20.331874 C18.7979162,20.331874 20.0641368,20.1124767 21.0845779,19.6752164 C22.1050191,19.2364219 23.1254603,18.6534082 24.1459015,17.9215726 C24.6362691,18.6534082 25.1290191,19.491874 25.6189897,20.4415726 C26.1109456,21.3912712 26.3579162,22.2312712 26.3579162,22.961189 C26.3579162,23.5821753 26.1867838,24.1655726 25.8472985,24.7136822 C25.5070191,25.2621753 24.9022985,25.7911068 24.0323426,26.302011 C23.2012985,26.7768603 22.0851662,27.1780658 20.6879162,27.5071616 C19.289475,27.8351068 17.5130338,28.0000384 15.3593868,28.0000384 C13.8076809,28.0000384 12.1463868,27.8166959 10.3695485,27.4515452 C8.59310735,27.0875452 6.94888676,26.3756548 5.43807794,25.3162575 C3.926475,24.2568603 2.66898971,22.7697918 1.66681324,20.8523671 C0.665430882,18.935326 0.165136765,16.4249151 0.165136765,13.3219014 C0.165136765,11.0212986 0.570533824,9.03176438 1.38371029,7.35176438 C2.19609265,5.67291507 3.25504853,4.28480548 4.55859265,3.18935342 C5.86213676,2.09390137 7.355475,1.29110685 9.03741618,0.779052055 C10.7189603,0.268147945 12.4108279,0.0126958904 14.1110338,0.0126958904 C16.4167544,0.0126958904 18.3825926,0.341408219 20.0077544,0.998449315 C21.6321221,1.65510685 22.9459897,2.53116164 23.9473721,3.62776438 C24.9495485,4.72206575 25.6781515,6.00086027 26.1307985,7.45992877 C26.5850338,8.92091507 26.8105632,10.4547781 26.8105632,12.0615178 L26.8105632,12.8014082 C26.8105632,13.1109425 26.8018279,13.4300658 26.7831662,13.7591616 C26.7633132,14.0882575 26.7442544,14.3977918 26.7255926,14.6908329 C26.7073279,14.983874 26.6771515,15.201737 26.6410191,15.3474904 L11.5035485,15.3474904 C11.6921515,16.7359836 12.2210338,17.9131342 13.0905926,18.8797096 C13.9601515,19.8485863 15.3593868,20.331874 17.2859162,20.331874 Z M16.7756956,10.8019014 C16.7756956,9.26918904 16.5585044,8.22781918 16.1245191,7.68086027 C15.6893426,7.13236712 14.9801956,6.85888767 13.9986662,6.85888767 C12.2210338,6.85888767 11.3340044,8.17373699 11.3340044,10.8019014 L16.7756956,10.8019014 Z" id="Fill-19" fill="#FEFEFE" mask="url(#mask-6)"></path>
                </g>
                <path d="M145,103.380033 C145.879784,103.199717 146.677137,103.090919 147.392443,103.054019 C148.107749,103.019021 148.70326,103 149.180131,103 C150.059915,103 150.913506,103.081409 151.737437,103.243845 C152.561754,103.407423 153.28669,103.696918 153.909935,104.113851 C154.533179,104.529643 155.036628,105.109393 155.422593,105.851961 C155.807403,106.594147 156,107.545562 156,108.703541 L156,141.293572 C154.569388,141.764524 153.230837,142 151.985503,142 C150.298351,142 148.987919,141.800283 148.052281,141.40237 C147.117799,141.004077 146.420597,140.479487 145.962216,139.827078 C145.503449,139.17581 145.228806,138.425254 145.1379,137.572747 C145.044683,136.721762 145,135.826648 145,134.884744 L145,103.380033 Z" id="Fill-22" fill="#FEFEFE"></path>
                <path d="M163,142 L163,105 L184,105 C184,105.847899 183.765782,106.519556 183.296162,107.018844 C182.826542,107.516583 182.160164,107.764871 181.297814,107.764871 L166.321248,107.764871 L166.321248,120.816859 L179.608209,120.816859 L179.608209,123.637895 L166.321248,123.637895 L166.321248,142 L163,142 Z" id="Fill-24" fill="#FEFEFE"></path>
                <path d="M189,103.055391 C189.182729,103.019482 189.302621,103 189.357363,103 L189.550887,103 C189.770239,103 190.026985,103.027886 190.321511,103.082895 C190.614109,103.13714 190.898998,103.264347 191.174248,103.4649 C191.449113,103.663924 191.687741,103.94699 191.889746,104.309894 C192.090979,104.67318 192.192367,105.164438 192.192367,105.782522 L192.192367,136.709618 C192.192367,138.236108 192.413261,139.245365 192.852737,139.73624 C193.293755,140.227498 194.009252,140.509418 195,140.581235 L195,141.727631 C194.595605,141.836884 194.210486,141.907555 193.844641,141.944991 C193.476484,141.9809 193.109483,142 192.742483,142 C191.863146,142 191.164225,141.835738 190.650732,141.509124 C190.13724,141.181364 189.761758,140.763833 189.522745,140.253475 C189.284503,139.744645 189.137625,139.154447 189.083269,138.480973 C189.027371,137.809027 189,137.109195 189,136.381858 L189,103.055391 Z" id="Fill-26" fill="#FEFEFE"></path>
                <path d="M222,142.489517 L218.819567,142.489517 L218.819567,139.426617 C217.978568,140.333966 216.781585,141.156698 215.22785,141.894019 C213.674883,142.631737 211.800878,143 209.607369,143 C208.292493,143 207.15849,142.839108 206.208814,142.51812 C205.257987,142.197528 204.45347,141.76173 203.796032,141.213904 C203.13821,140.666078 202.616714,140.050717 202.23308,139.370205 C201.849447,138.69009 201.584091,137.971044 201.438164,137.215052 C201.254988,136.420923 201.13671,135.596998 201.08218,134.747252 C201.026881,133.895917 201,133.036239 201,132.166233 L201,116 L201.218506,116 C201.987309,116 202.66318,116.208563 203.248039,116.624101 C203.831745,117.04083 204.125135,117.853233 204.125135,119.0629 L204.125135,132.166233 C204.125135,132.922225 204.169681,133.678614 204.261461,134.435401 C204.352089,135.192982 204.489568,135.852836 204.673128,136.420923 C205.367048,138.841051 207.432294,140.050717 210.868483,140.050717 C211.783213,140.050717 212.714456,139.918429 213.665283,139.653851 C214.615726,139.390466 215.475158,139.058354 216.242425,138.661488 C217.009692,138.26343 217.640633,137.820084 218.134479,137.328272 C218.627942,136.836857 218.873713,136.363717 218.873713,135.910439 L218.873713,116 L219.093755,116 C219.861022,116 220.536509,116.208563 221.121752,116.624101 C221.705459,117.04083 221.998848,117.872302 221.998848,119.120106 L221.998848,142.489517 L222,142.489517 Z" id="Fill-28" fill="#FEFEFE"></path>
                <g id="Group-32" transform="translate(227.000000, 116.000000)">
                    <mask id="mask-8" fill="white">
                        <use xlink:href="#path-7"></use>
                    </mask>
                    <g id="Clip-31"></g>
                    <path d="M10.9603228,10.8519261 L17.4078667,1.63240435 C17.811586,1.07440435 18.2156912,0.674882609 18.6205684,0.431491304 C19.0246737,0.190447826 19.5387789,0.0687521739 20.1632702,0.0687521739 C20.4203228,0.0687521739 20.6870246,0.106708696 20.9622175,0.180665217 C21.2385684,0.255404348 21.4678316,0.32936087 21.6523228,0.4041 L12.6689895,13.3108826 L21.3767439,26.328013 C21.1926386,26.4031435 20.9718667,26.4771 20.714814,26.5518391 C20.4573754,26.6257957 20.2003228,26.6637522 19.9432702,26.6637522 C19.2450596,26.6637522 18.6668842,26.5138826 18.2079719,26.2161 C17.7475158,25.9187087 17.316007,25.4898391 16.9119018,24.9314478 L10.7951298,15.8238391 L4.84355088,24.8195348 C4.43867368,25.4538391 4.03611228,25.9187087 3.63084912,26.2161 C3.22597193,26.5138826 2.61962105,26.6637522 1.81179649,26.6637522 C1.22358596,26.6637522 0.709480702,26.5702304 0.269480702,26.3847522 L9.08762105,13.2545348 L0.544673684,0.347752174 C0.985831579,0.162273913 1.50032281,0.0687521739 2.08853333,0.0687521739 C2.93225263,0.0687521739 3.52895439,0.200230435 3.87825263,0.459665217 C4.22755088,0.720273913 4.6034807,1.16753478 5.00835789,1.80105652 L10.9603228,10.8519261 Z" id="Fill-30" fill="#FEFEFE" mask="url(#mask-8)"></path>
                </g>
            </g>
        </g>
    </g>
</svg>
