<?xml version="1.0" encoding="UTF-8"?>
<svg width="532px" height="101px" viewBox="0 0 532 101" version="1.1" xmlns="http://www.w3.org/2000/svg" xmlns:xlink="http://www.w3.org/1999/xlink">
    <!-- Generator: sketchtool 49.3 (51167) - http://www.bohemiancoding.com/sketch -->
    <title>64281A54-6D89-4D0C-9BDC-570F057DC579</title>
    <desc>Created with sketchtool.</desc>
    <defs>
        <linearGradient x1="0%" y1="50.0033146%" x2="100%" y2="50.0033146%" id="linearGradient-1">
            <stop stop-color="#2E3191" offset="0%"></stop>
            <stop stop-color="#2B3A97" offset="4%"></stop>
            <stop stop-color="#1C63B6" offset="25%"></stop>
            <stop stop-color="#1083CF" offset="46%"></stop>
            <stop stop-color="#079AE0" offset="65%"></stop>
            <stop stop-color="#02A8EA" offset="84%"></stop>
            <stop stop-color="#00ADEE" offset="100%"></stop>
        </linearGradient>
        <linearGradient x1="0%" y1="49.9966854%" x2="100%" y2="49.9966854%" id="linearGradient-2">
            <stop stop-color="#FFF23A" offset="0%"></stop>
            <stop stop-color="#F1CC36" offset="11%"></stop>
            <stop stop-color="#E1A231" offset="25%"></stop>
            <stop stop-color="#D4802E" offset="39%"></stop>
            <stop stop-color="#CA652B" offset="54%"></stop>
            <stop stop-color="#C35229" offset="69%"></stop>
            <stop stop-color="#BE4727" offset="84%"></stop>
            <stop stop-color="#BD4327" offset="100%"></stop>
        </linearGradient>
        <linearGradient x1="0%" y1="50.0033146%" x2="100%" y2="50.0033146%" id="linearGradient-3">
            <stop stop-color="#FFF23A" offset="0%"></stop>
            <stop stop-color="#FFF13A" offset="0%"></stop>
            <stop stop-color="#F9C83B" offset="16%"></stop>
            <stop stop-color="#F5A63B" offset="32%"></stop>
            <stop stop-color="#F18B3C" offset="48%"></stop>
            <stop stop-color="#EF783C" offset="65%"></stop>
            <stop stop-color="#ED6D3C" offset="82%"></stop>
            <stop stop-color="#ED693C" offset="100%"></stop>
        </linearGradient>
        <linearGradient x1="0%" y1="14370%" x2="13266%" y2="14370%" id="linearGradient-4">
            <stop stop-color="#FFF23A" offset="0%"></stop>
            <stop stop-color="#FFF13A" offset="0%"></stop>
            <stop stop-color="#F9C83B" offset="16%"></stop>
            <stop stop-color="#F5A63B" offset="32%"></stop>
            <stop stop-color="#F18B3C" offset="48%"></stop>
            <stop stop-color="#EF783C" offset="65%"></stop>
            <stop stop-color="#ED6D3C" offset="82%"></stop>
            <stop stop-color="#ED693C" offset="100%"></stop>
        </linearGradient>
        <linearGradient x1="21157%" y1="16710%" x2="26532%" y2="16710%" id="linearGradient-5">
            <stop stop-color="#2E3191" offset="0%"></stop>
            <stop stop-color="#2B3A97" offset="4%"></stop>
            <stop stop-color="#1C63B6" offset="25%"></stop>
            <stop stop-color="#1083CF" offset="46%"></stop>
            <stop stop-color="#079AE0" offset="65%"></stop>
            <stop stop-color="#02A8EA" offset="84%"></stop>
            <stop stop-color="#00ADEE" offset="100%"></stop>
        </linearGradient>
        <linearGradient x1="50%" y1="0%" x2="50%" y2="100%" id="linearGradient-6">
            <stop stop-color="#F16522" stop-opacity="0.7" offset="0%"></stop>
            <stop stop-color="#ED693C" stop-opacity="0" offset="100%"></stop>
        </linearGradient>
        <linearGradient x1="50%" y1="100%" x2="50%" y2="0.00732332479%" id="linearGradient-7">
            <stop stop-color="#2483C5" offset="0%"></stop>
            <stop stop-color="#2483C5" stop-opacity="0" offset="100%"></stop>
        </linearGradient>
    </defs>
    <g id="_-_-product-Shop-training" stroke="none" stroke-width="1" fill="none" fill-rule="evenodd">
        <g id="Product-shop--training" transform="translate(-694.000000, -173.000000)" fill-rule="nonzero">
            <g id="istacktraining-color" transform="translate(694.000000, 173.000000)">
                <polygon id="Shape" fill="url(#linearGradient-1)" points="98 73.0018561 49 101 0 73.0018561 49 45"></polygon>
                <polygon id="Shape" fill="url(#linearGradient-2)" points="98 50.9981439 49 79 0 50.9981439 49 23"></polygon>
                <polygon id="Shape" fill="url(#linearGradient-3)" points="98 27.9981439 49 56 0 27.9981439 49 0"></polygon>
                <polygon id="Shape" fill="url(#linearGradient-4)" points="0 28 0 50.3800806 49 78 49 55.6199194"></polygon>
                <polygon id="Shape" fill="url(#linearGradient-5)" points="98 73 98 50 78 61.5"></polygon>
                <polygon id="Shape" fill="url(#linearGradient-6)" points="0 50 0 72.3817196 49 100 49 77.6219423"></polygon>
                <polygon id="Shape" fill="url(#linearGradient-7)" points="98 28 98 50.3800806 49 78 49 55.6199194"></polygon>
                <path d="M141.997029,31.8999734 C142.036327,32.9097624 141.684346,33.8925207 141.023192,34.619004 C140.362038,35.3454872 139.449526,35.7521675 138.498515,35.7441799 C136.504361,35.7441799 135,34.1269364 135,31.8999734 C135,29.6730105 136.518355,28 138.498515,28 C140.478674,28 141.997029,29.6172435 141.997029,31.8999734 Z M135.496789,70 L135.496789,40.3654067 L141.472252,40.3654067 L141.472252,70 L135.496789,70 Z" id="Shape" fill="#FFFFFF"></path>
                <path d="M177.512029,33.9613104 L174.836068,39.6811635 C170.692879,37.1516521 166.54605,36.1053375 163.655283,36.1053375 C159.890734,36.1053375 157.436859,37.5371364 157.436859,40.121717 C157.436859,48.5362892 178.054503,44.0279582 177.999892,57.8907088 C177.999892,64.7633437 171.999913,69 163.600672,69 C157.833452,68.9654067 152.280465,66.7922398 148,62.8946625 L150.781543,57.2849478 C154.709927,60.915843 159.617677,62.8946625 163.709895,62.8946625 C168.184393,62.8946625 170.856714,61.1875177 170.856714,58.2174527 C170.856714,49.637673 150.235429,54.4250212 150.235429,40.7274781 C150.235429,34.1191754 155.853127,30 164.146786,30 C168.88501,30.0104174 173.521802,31.384711 177.512029,33.9613104 Z" id="Shape" fill="#FFFFFF"></path>
                <path d="M203,67.824844 C200.784585,69.2001387 198.232992,69.9520758 195.618913,70 C191.106787,70 187.226358,67.4337628 187.226358,61.35152 L187.226358,45.9466479 L183,45.9466479 L183,41.1493859 L187.226358,41.1493859 L187.226358,33 L193.659898,33 L193.659898,41.1493859 L202.503666,41.1493859 L202.503666,45.9466479 L193.659898,45.9466479 L193.659898,60.1782766 C193.659898,63.2473324 194.844332,64.1971009 196.871028,64.1971009 C198.224666,64.1971009 199.630946,63.750151 201.383155,62.91212 L203,67.824844 Z" id="Shape" fill="#FFFFFF"></path>
                <path d="M225.812474,66.1162532 C223.735389,68.707886 220.408409,70 216.203224,70 C209.924597,70 206,66.0607183 206,60.8478341 C206,55.4683451 209.986545,52.0288782 216.975753,51.9622362 L225.765102,51.9622362 L225.765102,51.0736764 C225.765102,47.3713439 223.41836,45.1499445 218.841486,45.1499445 C216.057463,45.1499445 213.164121,46.1458719 210.270778,48.1451314 L207.701752,43.7023325 C211.742957,41.2624954 214.69096,40 220.207989,40 C227.685494,40 231.89068,43.8837468 231.94534,50.3665309 L232,69.7260274 L225.812474,69.7260274 L225.812474,66.1162532 Z M225.757814,59.3483895 L225.757814,56.6308775 L217.894043,56.6308775 C213.801822,56.6308775 211.888718,57.7415772 211.888718,60.5701592 C211.888718,63.2321362 214.016819,64.9537208 217.511423,64.9537208 C221.978977,64.9537208 225.429853,62.5657164 225.757814,59.3483895 Z" id="Shape" fill="#FFFFFF"></path>
                <path d="M264.67171,44.8387097 L261.228317,48.9506859 C259.207511,46.8372265 256.417049,45.5617353 252.918941,45.6136448 C247.892461,45.6136448 244.284923,49.4438265 244.284923,55.0574713 C244.284923,60.6711161 247.892461,64.5012977 252.918941,64.5012977 C256.566604,64.5012977 259.532153,63.277716 261.501891,60.945495 L265,64.5012977 C262.37733,68.0014831 258.167928,70 252.649014,70 C244.011348,70 238,63.9451242 238,55.0574713 C238,46.1104931 244.011348,40 252.649014,40 C257.894353,40.0037078 261.994326,41.7278458 264.67171,44.8387097 Z" id="Shape" fill="#FFFFFF"></path>
                <polygon id="Shape" fill="#FFFFFF" points="278.243319 60.7682828 278.243319 69 272 69 272 28 278.243319 28 278.243319 52.7541603 291.009131 39.6025906 298.184235 39.6025906 287.485028 50.9875866 299 69 291.607359 69 283.134282 55.5165063"></polygon>
                <polygon id="Shape" fill="#FFFFFF" points="333.73055 36.9050343 333.73055 70 327.210445 70 327.210445 36.9050343 315 36.9050343 315 31 346 31 346 36.9050343"></polygon>
                <path d="M355.53817,46.1561449 C357.583482,42.1292492 361.230134,40 366,40 L366,46.1561449 C359.928571,45.8236832 356.050446,49.3462832 355.53817,54.441539 L355.53817,70 L349,70 L349,40.2241315 L355.53817,40.2241315 L355.53817,46.1561449 Z" id="Shape" fill="#FFFFFF"></path>
                <path d="M386.801373,66.1162532 C384.729094,68.707886 381.400336,70 377.197507,70 C370.922398,70 367,66.0607183 367,60.8478341 C367,55.4683451 370.984312,52.0288782 377.969604,51.9622362 L386.754027,51.9622362 L386.754027,51.0736764 C386.754027,47.3713439 384.408601,45.1499445 379.834291,45.1499445 C377.051828,45.1499445 374.160106,46.1458719 371.268385,48.1451314 L368.719008,43.7023325 C372.754307,41.2624954 375.700658,40 381.214596,40 C388.687911,40 392.890741,43.8837468 392.945371,50.3665309 L393,69.7260274 L386.83415,69.7260274 L386.801373,66.1162532 Z M386.746743,59.3483895 L386.746743,56.6308775 L378.887379,56.6308775 C374.797451,56.6308775 372.885418,57.7415772 372.885418,60.5701592 C372.885418,63.2321362 375.015969,64.9537208 378.508615,64.9537208 C382.98095,64.9537208 386.418966,62.5657164 386.746743,59.3483895 Z" id="Shape" fill="#FFFFFF"></path>
                <path d="M408,31.8999734 C408,34.1306542 406.481,35.7441799 404.5,35.7441799 C402.519,35.7441799 401,34.1269364 401,31.8999734 C401,29.6730105 402.519,28 404.5,28 C406.481,28 408,29.6172435 408,31.8999734 Z M401.497,70 L401.497,40.3654067 L407.4785,40.3654067 L407.4785,70 L401.497,70 Z" id="Shape" fill="#FFFFFF"></path>
                <path d="M445,51.4755323 L445,70 L438.673748,70 L438.673748,53.2648487 C438.673748,48.7822189 436.033832,46.0440792 431.631524,46.0440792 C426.79229,46.1001121 423.763179,49.5143818 423.326252,54.1613747 L423.326252,70 L417,70 L417,40.2241315 L423.326252,40.2241315 L423.326252,45.935749 C425.415421,41.7930519 429.156832,40 434.106216,40 C440.928141,40 445,44.3668285 445,51.4755323 Z" id="Shape" fill="#FFFFFF"></path>
                <path d="M460,31.8999734 C460,34.1306542 458.481645,35.7441799 456.501485,35.7441799 C455.550474,35.7521675 454.637962,35.3454872 453.976808,34.619004 C453.315654,33.8925207 452.963673,32.9097624 453.002971,31.8999734 C453.002971,29.6172435 454.524824,28 456.501485,28 C458.478146,28 460,29.6172435 460,31.8999734 Z M453.49976,70 L453.49976,40.3654067 L459.475223,40.3654067 L459.475223,70 L453.49976,70 Z" id="Shape" fill="#FFFFFF"></path>
                <path d="M498,51.4755323 L498,70 L491.675406,70 L491.675406,53.2648487 C491.675406,48.7822189 489.032512,46.0440792 484.635029,46.0440792 C479.793393,46.1001121 476.768747,49.5143818 476.328264,54.1613747 L476.328264,70 L470,70 L470,40.2241315 L476.324594,40.2241315 L476.324594,45.935749 C478.416885,41.7930519 482.157315,40 487.105401,40 C493.929208,40 498,44.3668285 498,51.4755323 Z" id="Shape" fill="#FFFFFF"></path>
                <path d="M532,67.0775109 C532,75.6302702 526.043145,81 516.916352,81 C512.592797,80.9886473 508.376428,79.6225409 504.834843,77.0855827 L507.512327,72.4435091 C510.248176,74.5145307 513.089811,75.6862438 516.631824,75.6862438 C522.150943,75.6862438 525.751321,72.3875356 525.751321,67.2454316 L525.751321,63.4840087 C523.781509,66.7267433 520.502138,68.5178971 516.132075,68.5178971 C508.260126,68.5178971 503,62.7003789 503,54.1476196 C503,45.762781 508.190818,40.0572099 515.898616,40.0012363 C520.378113,39.9452628 523.712201,41.7923901 525.747673,45.0351248 L525.747673,40.2400568 L531.978113,40.2400568 L532,67.0775109 Z M525.76956,54.3304666 C525.76956,48.9644684 522.326038,45.2179717 517.405157,45.2179717 C512.484277,45.2179717 508.989686,49.0204419 508.934969,54.3304666 C508.989686,59.6964647 512.378491,63.498935 517.405157,63.498935 C522.326038,63.4840087 525.76956,59.6964647 525.76956,54.3304666 Z" id="Shape" fill="#FFFFFF"></path>
            </g>
        </g>
    </g>
</svg>