<?xml version="1.0" encoding="UTF-8"?>
<svg width="254px" height="88px" viewBox="0 0 254 88" version="1.1" xmlns="http://www.w3.org/2000/svg" xmlns:xlink="http://www.w3.org/1999/xlink">
    <!-- Generator: sketchtool 49.3 (51167) - http://www.bohemiancoding.com/sketch -->
    <title>F02F5DC8-F2AD-4968-9D6B-285E68E2506E</title>
    <desc>Created with sketchtool.</desc>
    <defs>
        <polygon id="path-1" points="0.245739474 0.228081633 50.8197553 0.228081633 50.8197553 87.8732338 0.245739474 87.8732338"></polygon>
        <polygon id="path-3" points="0 88 254 88 254 0 0 0"></polygon>
    </defs>
    <g id="_-_-product-Shop-STM" stroke="none" stroke-width="1" fill="none" fill-rule="evenodd">
        <g id="Product-shop-STM" transform="translate(-833.000000, -180.000000)">
            <g id="stm" transform="translate(833.000000, 180.000000)">
                <path d="M0,77.504141 L8.93113407,62.4151695 C16.7295129,67.7952796 25.2836539,70.5497711 32.3267781,70.5497711 C36.4785225,70.5497711 38.3652639,69.2377557 38.3652639,66.74445 L38.3652639,66.4819411 C38.3652639,63.727185 34.5917811,62.5458947 27.4220623,60.4471463 C13.9621908,56.7725504 3.27116358,52.0500358 3.27116358,37.7491203 L3.27116358,37.4863467 C3.27116358,22.3973752 14.8430252,14 30.5666313,14 C40.5036723,14 50.8177063,17.0175297 58.6163389,22.26665 L50.4407132,38.0103061 C43.3963206,33.9437992 35.7230141,31.4504935 30.3147106,31.4504935 C26.6665539,31.4504935 24.7800662,32.8929695 24.7800662,34.8623158 L24.7800662,35.1237663 C24.7800662,37.8795809 28.6798899,39.1915963 35.8496087,41.4221285 C49.3082117,45.3581748 60,50.2127378 60,63.9899585 L60,64.2524675 C60,79.865663 48.8056388,88 32.201452,88 C20.7549164,88 9.43472176,84.5892362 0,77.504141" id="Fill-1" fill="#FFFFFF"></path>
                <g id="Group-5" transform="translate(60.000000, 0.000000)">
                    <mask id="mask-2" fill="white">
                        <use xlink:href="#path-1"></use>
                    </mask>
                    <g id="Clip-4"></g>
                    <path d="M8.76327632,65.1030414 L8.76327632,37.1180152 L0.245739474,37.1180152 L0.245739474,17.654365 L8.76327632,17.654365 L8.76327632,0.228055977 L34.0496132,0.228055977 L34.0496132,17.654365 L50.8197553,17.654365 L50.8197553,37.1180152 L34.0496132,37.1180152 L34.0496132,60.3964525 C34.0496132,65.2297819 36.3121342,67.2655837 40.9700447,67.2655837 C44.2981974,67.2655837 47.4913342,66.3750647 50.5532132,64.9763009 L50.5532132,83.9293971 C46.0281711,86.3467032 40.0394289,87.8732338 32.9853237,87.8732338 C17.8136289,87.8732338 8.76327632,81.512091 8.76327632,65.1030414" id="Fill-3" fill="#FFFFFF" mask="url(#mask-2)"></path>
                </g>
                <path d="M115,15.5177819 L139.157997,15.5177819 L139.157997,24.88616 C143.60806,19.1890526 149.965036,14 159.628337,14 C168.783881,14 175.776836,18.0506523 179.464237,25.1384003 C185.440394,18.3028926 192.433094,14 202.477726,14 C217.100131,14 226,23.1135847 226,39.0629324 L226,84 L201.842003,84 L201.842003,46.7848554 C201.842003,39.3164492 198.154347,35.3916618 192.433094,35.3916618 C186.711584,35.3916618 182.514888,39.3164492 182.514888,46.7848554 L182.514888,84 L158.356891,84 L158.356891,46.7848554 C158.356891,39.3164492 154.669491,35.3916618 148.947981,35.3916618 C143.226728,35.3916618 139.157997,39.3164492 139.157997,46.7848554 L139.157997,84 L115,84 L115,15.5177819 Z" id="Fill-6" fill="#FFFFFF"></path>
                <mask id="mask-4" fill="white">
                    <use xlink:href="#path-3"></use>
                </mask>
                <g id="Clip-9"></g>
                <polygon id="Fill-8" fill="#D62027" mask="url(#mask-4)" points="231 83 259 83 259 60 231 60"></polygon>
            </g>
        </g>
    </g>
</svg>