<?xml version="1.0" encoding="UTF-8"?>
<svg width="234px" height="46px" viewBox="0 0 234 46" version="1.1" xmlns="http://www.w3.org/2000/svg" xmlns:xlink="http://www.w3.org/1999/xlink">
    <!-- Generator: Sketch 49.1 (51147) - http://www.bohemiancoding.com/sketch -->
    <title>adplexity</title>
    <desc>Created with Sketch.</desc>
    <defs></defs>
    <g id="_Landing-Page" stroke="none" stroke-width="1" fill="none" fill-rule="evenodd" opacity="0.65">
        <g id="Landing-Page--istack-Network" transform="translate(-1210.000000, -1319.000000)" fill="#7D8690" fill-rule="nonzero">
            <g id="What-is-the-iStack-Network" transform="translate(477.000000, 1118.000000)">
                <g id="Product-logos" transform="translate(0.000000, 194.000000)">
                    <g id="adplexity" transform="translate(733.000000, 7.000000)">
                        <g id="Group">
                            <polygon id="Shape" points="14.2138072 45.4175773 52.0384918 45.5659273 26.1817738 0.467527273 4.31437808 38.7418273 4.31437808 38.7418273 0.325055883 45.4175773 7.26943156 45.4175773 10.6677431 39.4835773 10.6677431 39.4835773 10.8154957 39.3352273 11.2587538 38.5934773 11.2587538 38.5934773 20.2716669 23.0167273 20.2716669 23.0167273 26.1817738 12.6322273 41.6958046 39.4835773 17.6121187 39.4835773"></polygon>
                            <polygon id="Shape" points="21.3059356 33.5495773 32.0918808 33.5495773 26.7727845 23.7584773"></polygon>
                        </g>
                        <g id="Group" transform="translate(56.737027, 15.824000)">
                            <path d="M15.888712,13.0368182 L4.70776652,13.0368182 L2.05964785,17.9818182 L0.588470816,17.9818182 L9.56265075,0.149848485 L11.0338278,0.149848485 L19.86089,17.9818182 L18.389713,17.9818182 L15.888712,13.0368182 Z M15.3002412,11.8380303 L10.1511216,1.64833333 L5.14911964,11.8380303 L15.3002412,11.8380303 Z" id="Shape"></path>
                            <path d="M26.1869513,0.149848485 L33.8370719,0.149848485 C35.8967198,0.149848485 37.6621322,0.599393939 39.1333092,1.34863636 C40.751604,2.09787879 41.9285456,3.14681818 42.8112518,4.49545455 C43.6939581,5.84409091 44.1353112,7.34257576 44.1353112,9.14075758 C44.1353112,10.7890909 43.6939581,12.4374242 42.8112518,13.7860606 C41.9285456,15.134697 40.751604,16.1836364 39.1333092,16.9328788 C37.6621322,17.5322727 35.749602,17.9818182 33.8370719,17.9818182 L26.1869513,17.9818182 L26.1869513,0.149848485 Z M33.6899542,16.7830303 C35.4553666,16.7830303 37.0736614,16.4833333 38.3977207,15.7340909 C39.7217801,15.134697 40.751604,14.2356061 41.4871925,13.0368182 C42.222781,11.8380303 42.6641341,10.4893939 42.6641341,8.99090909 C42.6641341,7.49242424 42.222781,6.14378788 41.4871925,4.945 C40.751604,3.74621212 39.7217801,2.84712121 38.3977207,2.24772727 C37.0736614,1.64833333 35.4553666,1.19878788 33.6899542,1.19878788 L27.5110106,1.19878788 L27.5110106,16.6331818 L33.6899542,16.6331818 L33.6899542,16.7830303 Z" id="Shape"></path>
                            <path d="M64.4375543,1.79818182 C65.7616136,2.84712121 66.4972022,4.34560606 66.4972022,6.14378788 C66.4972022,7.9419697 65.7616136,9.44045455 64.4375543,10.4893939 C63.113495,11.5383333 61.2009648,12.1377273 58.6999639,12.1377273 L53.1094911,12.1377273 L53.1094911,17.9818182 L51.6383141,17.9818182 L51.6383141,0.149848485 L58.5528462,0.149848485 C61.2009648,0.149848485 63.113495,0.749242424 64.4375543,1.79818182 Z M63.4077304,9.74015152 C64.4375543,8.84106061 65.0260251,7.79212121 65.0260251,6.14378788 C65.0260251,4.64530303 64.4375543,3.44651515 63.4077304,2.54742424 C62.3779065,1.64833333 60.7596117,1.34863636 58.6999639,1.34863636 L53.1094911,1.34863636 L53.1094911,10.9389394 L58.6999639,10.9389394 C60.7596117,10.9389394 62.3779065,10.6392424 63.4077304,9.74015152 Z" id="Shape"></path>
                            <polygon id="Shape" points="74.0002051 0.149848485 75.4713821 0.149848485 75.4713821 16.7830303 86.6523276 16.7830303 86.6523276 17.9818182 74.1473228 17.9818182 74.1473228 0.149848485"></polygon>
                            <polygon id="Shape" points="106.3661 16.7830303 106.3661 17.9818182 92.9783889 17.9818182 92.9783889 0.149848485 105.924747 0.149848485 105.924747 1.34863636 94.4495659 1.34863636 94.4495659 8.39151515 104.747805 8.39151515 104.747805 9.59030303 94.4495659 9.59030303 94.4495659 16.9328788 106.3661 16.9328788"></polygon>
                            <polygon id="Shape" points="126.22699 17.9818182 119.606693 9.74015152 112.986397 17.9818182 111.368102 17.9818182 118.871105 8.84106061 111.956573 0.29969697 113.574867 0.29969697 119.753811 7.9419697 125.932755 0.29969697 127.551049 0.29969697 120.636517 8.84106061 128.13952 17.9818182"></polygon>
                            <polygon id="Shape" points="133.877111 0.149848485 135.348288 0.149848485 135.348288 17.9818182 133.877111 17.9818182"></polygon>
                            <polygon id="Shape" points="148.588881 1.34863636 141.674349 1.34863636 141.674349 0.149848485 156.97459 0.149848485 156.97459 1.34863636 150.060058 1.34863636 150.060058 17.9818182 148.588881 17.9818182 148.588881 1.34863636"></polygon>
                            <polygon id="Shape" points="169.185359 11.8380303 169.185359 17.9818182 167.714182 17.9818182 167.714182 11.8380303 159.916944 0.149848485 161.535239 0.149848485 168.596889 10.6392424 175.658538 0.149848485 177.129715 0.149848485"></polygon>
                        </g>
                    </g>
                </g>
            </g>
        </g>
    </g>
</svg>