<?xml version="1.0" encoding="UTF-8"?>
<svg width="185px" height="46px" viewBox="0 0 185 46" version="1.1" xmlns="http://www.w3.org/2000/svg" xmlns:xlink="http://www.w3.org/1999/xlink">
    <!-- Generator: Sketch 49.1 (51147) - http://www.bohemiancoding.com/sketch -->
    <title>funnel</title>
    <desc>Created with Sketch.</desc>
    <defs></defs>
    <g id="_Landing-Page" stroke="none" stroke-width="1" fill="none" fill-rule="evenodd" opacity="0.65">
        <g id="Landing-Page--istack-Network" transform="translate(-942.000000, -1317.000000)" fill="#7D8690" fill-rule="nonzero">
            <g id="What-is-the-iStack-Network" transform="translate(477.000000, 1118.000000)">
                <g id="Product-logos" transform="translate(0.000000, 194.000000)">
                    <g id="funnel" transform="translate(465.666667, 5.000000)">
                        <path d="M24,21 C24,11.6271186 21.8719212,8.18644068 16.3152709,6.05084746 L0,0 L0,8.77966102 C0.118226601,10.7966102 1.41871921,12.5762712 3.31034483,13.4067797 L24,21 C24,20.8813559 24,21 24,21 Z" id="Shape"></path>
                        <path d="M33.038835,5.93220339 C27.4466019,7.94915254 25,11.3898305 25,21 L45.6213592,13.4067797 C47.4854369,12.6949153 48.8834951,10.9152542 49,8.77966102 L49,0 L33.038835,5.93220339 Z" id="Shape"></path>
                        <path d="M23,34.3153846 C23,24.3 20.5818182,21.3192308 15.169697,19.1730769 L4,15 L4,23.8230769 C4.11515152,25.85 5.38181818,27.6384615 7.10909091,28.4730769 L12.5212121,30.6192308 L12.5212121,38.7269231 C12.6363636,40.7538462 14.0181818,42.5423077 15.8606061,43.3769231 L22.8848485,46 L22.8848485,34.3153846 L23,34.3153846 Z" id="Shape"></path>
                        <path d="M35.2380952,18.5632184 C28.2142857,21.2950192 25,24.1455939 25,34.4789272 L25,46 L32.3809524,43.3869732 C34.2857143,42.6743295 35.5952381,40.8927203 35.8333333,38.7547893 L35.8333333,30.559387 L41.547619,28.4214559 C43.452381,27.7088123 44.7619048,25.9272031 45,23.789272 L45,15 C44.8809524,15 36.9047619,17.8505747 35.2380952,18.5632184" id="Shape"></path>
                        <g id="Group" transform="translate(62.000000, 13.000000)">
                            <path d="M5.67692308,8.11764706 L10.9990385,8.11764706 L10.9990385,12.2352941 L5.67692308,12.2352941 L5.67692308,19.2941176 L0.236538462,19.2941176 L0.236538462,1.17647059 L12.6548077,1.17647059 C12.6548077,1.52941176 12.6548077,1.76470588 12.7730769,2 C12.8913462,2.23529412 12.7730769,2.47058824 12.7730769,2.82352941 C12.7730769,3.17647059 12.7730769,3.41176471 12.6548077,3.76470588 C12.5365385,4.11764706 12.4182692,4.35294118 12.1817308,4.58823529 C11.9451923,4.82352941 11.5903846,5.05882353 11.2355769,5.17647059 C10.7625,5.29411765 10.2894231,5.41176471 9.81634615,5.41176471 L5.67692308,5.41176471 L5.67692308,8.11764706 Z" id="Shape"></path>
                            <path d="M25.7826923,19.2941176 L21.7615385,19.2941176 C21.4067308,19.2941176 21.0519231,19.1764706 20.8153846,18.9411765 C20.5788462,18.5882353 20.5788462,18.2352941 20.5788462,17.8823529 C20.2240385,18.3529412 19.8692308,18.7058824 19.3961538,18.9411765 C18.6865385,19.2941176 17.8586538,19.5294118 17.0307692,19.4117647 C15.1384615,19.5294118 13.4826923,18.3529412 13.1278846,16.4705882 C13.0096154,16.2352941 13.0096154,16 13.0096154,15.7647059 C13.0096154,15.5294118 13.0096154,15.2941176 13.0096154,14.9411765 L13.0096154,14.1176471 C13.0096154,13.8823529 13.0096154,13.6470588 13.0096154,13.5294118 L13.0096154,6.23529412 C13.3644231,6.11764706 13.8375,6.11764706 14.1923077,6.11764706 L15.0201923,6.11764706 C15.4932692,6.11764706 15.8480769,6.11764706 16.3211538,6.23529412 C16.6759615,6.35294118 17.0307692,6.47058824 17.3855769,6.70588235 C17.7403846,6.94117647 17.9769231,7.17647059 18.0951923,7.52941176 C18.3317308,8 18.45,8.47058824 18.3317308,8.94117647 L18.3317308,14.1176471 C18.3317308,14.4705882 18.3317308,14.7058824 18.5682692,15.0588235 C18.6865385,15.2941176 18.9230769,15.4117647 19.3961538,15.4117647 C19.6326923,15.4117647 19.9875,15.4117647 20.2240385,15.1764706 C20.3423077,15.0588235 20.4605769,14.8235294 20.4605769,14.5882353 L20.4605769,6.35294118 C20.8153846,6.23529412 21.2884615,6.23529412 21.6432692,6.23529412 L22.4711538,6.23529412 C22.9442308,6.23529412 23.2990385,6.23529412 23.7721154,6.35294118 C24.1269231,6.47058824 24.4817308,6.58823529 24.8365385,6.82352941 C25.1913462,7.05882353 25.4278846,7.29411765 25.5461538,7.64705882 C25.7826923,8.11764706 25.9009615,8.58823529 25.7826923,9.05882353 L25.7826923,19.2941176 Z" id="Shape"></path>
                            <path d="M27.9115385,6.47058824 C28.2663462,6.35294118 28.5028846,6.35294118 28.8576923,6.35294118 C29.2125,6.35294118 29.6855769,6.35294118 30.0403846,6.35294118 C30.75,6.35294118 31.3413462,6.47058824 32.0509615,6.70588235 C32.5240385,6.94117647 32.8788462,7.29411765 33.1153846,7.64705882 C33.4701923,7.17647059 33.825,6.82352941 34.2980769,6.58823529 C35.0076923,6.23529412 35.8355769,6 36.6634615,6 C38.5557692,5.88235294 40.2115385,7.05882353 40.5663462,8.94117647 C40.6846154,9.17647059 40.6846154,9.41176471 40.6846154,9.64705882 C40.6846154,9.88235294 40.6846154,10.1176471 40.6846154,10.4705882 C40.6846154,10.8235294 40.6846154,11.0588235 40.6846154,11.2941176 C40.6846154,11.5294118 40.6846154,11.7647059 40.6846154,11.8823529 L40.6846154,19.2941176 C40.0932692,19.5294118 39.3836538,19.6470588 38.6740385,19.6470588 C37.9644231,19.6470588 37.3730769,19.5294118 36.7817308,19.4117647 C35.9538462,19.1764706 35.3625,18.3529412 35.3625,17.5294118 C35.3625,17.0588235 35.2442308,16.5882353 35.2442308,16.2352941 L35.2442308,11.5294118 C35.2442308,11.1764706 35.2442308,10.9411765 35.1259615,10.5882353 C35.0076923,10.3529412 34.7711538,10.2352941 34.4163462,10.2352941 C34.0615385,10.2352941 33.825,10.2352941 33.5884615,10.4705882 C33.4701923,10.5882353 33.3519231,10.8235294 33.3519231,11.0588235 L33.3519231,19.4117647 L28.0298077,19.4117647 L28.0298077,6.47058824 L27.9115385,6.47058824 Z" id="Shape"></path>
                            <path d="M42.8134615,6.47058824 C43.1682692,6.35294118 43.4048077,6.35294118 43.7596154,6.35294118 C44.1144231,6.35294118 44.5875,6.35294118 44.9423077,6.35294118 C45.6519231,6.35294118 46.2432692,6.47058824 46.9528846,6.70588235 C47.4259615,6.94117647 47.7807692,7.29411765 48.0173077,7.64705882 C48.3721154,7.17647059 48.7269231,6.82352941 49.2,6.58823529 C49.9096154,6.23529412 50.7375,6 51.5653846,6 C53.4576923,5.88235294 55.1134615,7.05882353 55.4682692,8.94117647 C55.5865385,9.17647059 55.5865385,9.41176471 55.5865385,9.64705882 C55.5865385,9.88235294 55.5865385,10.1176471 55.5865385,10.4705882 C55.5865385,10.8235294 55.5865385,11.0588235 55.5865385,11.2941176 C55.5865385,11.5294118 55.5865385,11.7647059 55.5865385,11.8823529 L55.5865385,19.2941176 C54.9951923,19.5294118 54.2855769,19.6470588 53.5759615,19.6470588 C52.8663462,19.6470588 52.275,19.5294118 51.6836538,19.4117647 C51.3288462,19.2941176 50.9740385,18.9411765 50.6192308,18.5882353 C50.3826923,18.2352941 50.2644231,17.8823529 50.2644231,17.4117647 C50.2644231,16.9411765 50.1461538,16.4705882 50.1461538,16.1176471 L50.1461538,11.5294118 C50.1461538,11.1764706 50.1461538,10.9411765 50.0278846,10.5882353 C49.9096154,10.3529412 49.6730769,10.2352941 49.3182692,10.2352941 C48.9634615,10.2352941 48.7269231,10.2352941 48.4903846,10.4705882 C48.3721154,10.5882353 48.2538462,10.8235294 48.2538462,11.0588235 L48.2538462,19.4117647 L42.9317308,19.4117647 L42.9317308,6.47058824 L42.8134615,6.47058824 Z" id="Shape"></path>
                            <path d="M65.2846154,11.2941176 C65.2846154,10.8235294 65.2846154,10.2352941 64.9298077,9.76470588 C64.6932692,9.41176471 64.3384615,9.29411765 63.8653846,9.41176471 C63.0375,9.41176471 62.5644231,10 62.5644231,11.4117647 L65.2846154,11.2941176 Z M65.5211538,16 C66.1125,16 66.7038462,15.8823529 67.2951923,15.6470588 C67.7682692,15.4117647 68.2413462,15.1764706 68.7144231,14.8235294 C68.9509615,15.1764706 69.1875,15.6470588 69.4240385,16 C69.6605769,16.3529412 69.7788462,16.8235294 69.7788462,17.1764706 C69.7788462,17.5294118 69.6605769,17.7647059 69.5423077,18 C69.3057692,18.3529412 69.0692308,18.5882353 68.7144231,18.8235294 C68.2413462,19.0588235 67.65,19.2941176 67.1769231,19.4117647 C66.3490385,19.6470588 65.5211538,19.6470588 64.6932692,19.6470588 C63.8653846,19.6470588 63.1557692,19.5294118 62.3278846,19.4117647 C61.5,19.2941176 60.6721154,18.8235294 59.9625,18.3529412 C59.1346154,17.7647059 58.5432692,17.0588235 58.1884615,16.1176471 C57.7153846,14.9411765 57.4788462,13.6470588 57.4788462,12.4705882 C57.4788462,11.4117647 57.5971154,10.4705882 58.0701923,9.52941176 C58.425,8.70588235 58.8980769,8.11764706 59.6076923,7.52941176 C60.1990385,6.94117647 60.9086538,6.58823529 61.7365385,6.35294118 C62.4461538,6.11764706 63.2740385,6 64.1019231,6 C65.0480769,6 65.9942308,6.11764706 66.9403846,6.47058824 C67.65,6.70588235 68.2413462,7.17647059 68.8326923,7.76470588 C69.3057692,8.35294118 69.6605769,8.94117647 69.8971154,9.64705882 C70.1336538,10.3529412 70.2519231,11.0588235 70.3701923,11.8823529 L70.3701923,12.2352941 C70.3701923,12.3529412 70.3701923,12.5882353 70.3701923,12.7058824 C70.3701923,12.8235294 70.3701923,13.0588235 70.3701923,13.1764706 C70.3701923,13.2941176 70.3701923,13.4117647 70.3701923,13.5294118 L63.1557692,13.5294118 C63.2740385,14.1176471 63.5105769,14.8235294 63.8653846,15.2941176 C64.3384615,15.7647059 65.1663462,16.1176471 65.8759615,16 L65.5211538,16 Z" id="Shape"></path>
                            <path d="M71.6711538,0.470588235 C72.0259615,0.352941176 72.4990385,0.352941176 72.8538462,0.352941176 C73.2086538,0.352941176 73.4451923,0.352941176 73.6817308,0.352941176 C74.1548077,0.352941176 74.5096154,0.352941176 74.9826923,0.470588235 C75.3375,0.588235294 75.6923077,0.705882353 76.0471154,0.941176471 C76.4019231,1.17647059 76.6384615,1.41176471 76.7567308,1.76470588 C76.9932692,2.23529412 77.1115385,2.70588235 76.9932692,3.17647059 L76.9932692,19.2941176 C76.4019231,19.5294118 75.6923077,19.6470588 74.9826923,19.6470588 C74.2730769,19.6470588 73.6817308,19.5294118 73.0903846,19.4117647 C72.2625,19.1764706 71.6711538,18.3529412 71.6711538,17.5294118 C71.6711538,17.0588235 71.5528846,16.5882353 71.5528846,16.2352941 L71.5528846,0.470588235 L71.6711538,0.470588235 Z" id="Shape"></path>
                            <path d="M80.5413462,19.2941176 L80.5413462,1.29411765 L90.5942308,1.29411765 C90.5942308,1.64705882 90.4759615,2 90.2394231,2.23529412 C90.0028846,2.47058824 89.6480769,2.58823529 89.2932692,2.58823529 L82.0788462,2.58823529 L82.0788462,8.94117647 L88.4653846,8.94117647 L88.4653846,10.3529412 L82.0788462,10.3529412 L82.0788462,19.2941176 L80.5413462,19.2941176 Z" id="Shape"></path>
                            <path d="M92.9596154,0.235294118 L93.0778846,0.235294118 L93.1961538,0.235294118 C93.3144231,0.235294118 93.4326923,0.235294118 93.5509615,0.235294118 C93.6692308,0.235294118 93.7875,0.352941176 94.0240385,0.470588235 C94.1423077,0.588235294 94.2605769,0.705882353 94.3788462,0.823529412 C94.4971154,1.05882353 94.4971154,1.29411765 94.4971154,1.52941176 L94.4971154,16.8235294 C94.3788462,17.2941176 94.4971154,17.8823529 94.8519231,18.3529412 C95.0884615,18.5882353 95.5615385,18.8235294 95.9163462,18.8235294 L95.9163462,19.4117647 L95.325,19.5294118 L94.7336538,19.5294118 C94.3788462,19.5294118 94.0240385,19.4117647 93.6692308,19.2941176 C93.4326923,19.1764706 93.1961538,18.9411765 93.0778846,18.7058824 C92.9596154,18.4705882 92.8413462,18.1176471 92.8413462,17.8823529 C92.8413462,17.5294118 92.8413462,17.1764706 92.8413462,16.8235294 L92.9596154,0.235294118 Z" id="Shape"></path>
                            <path d="M109.280769,19.2941176 L107.743269,19.2941176 L107.743269,17.8823529 C107.270192,18.3529412 106.678846,18.8235294 105.969231,19.0588235 C105.141346,19.4117647 104.195192,19.6470588 103.249038,19.5294118 C102.657692,19.5294118 102.066346,19.4117647 101.593269,19.2941176 C101.120192,19.1764706 100.765385,18.9411765 100.410577,18.7058824 C100.055769,18.4705882 99.8192308,18.1176471 99.7009615,17.8823529 C99.4644231,17.5294118 99.3461538,17.1764706 99.3461538,16.8235294 C99.2278846,16.4705882 99.2278846,16 99.2278846,15.6470588 C99.2278846,15.2941176 99.2278846,14.8235294 99.2278846,14.4705882 L99.2278846,6.82352941 L99.3461538,6.82352941 C99.7009615,6.82352941 100.055769,6.94117647 100.410577,7.17647059 C100.765385,7.52941176 100.883654,7.88235294 100.883654,8.35294118 L100.883654,14.5882353 C100.883654,14.9411765 100.883654,15.2941176 101.001923,15.6470588 C101.001923,16 101.120192,16.2352941 101.238462,16.5882353 C101.593269,17.7647059 102.539423,18.3529412 104.313462,18.3529412 C104.786538,18.3529412 105.259615,18.2352941 105.732692,18.1176471 C106.205769,18 106.560577,17.8823529 107.033654,17.6470588 C107.388462,17.5294118 107.743269,17.2941176 107.979808,17.0588235 C108.216346,16.9411765 108.334615,16.7058824 108.334615,16.3529412 L108.334615,6.94117647 L108.452885,6.94117647 C108.807692,6.94117647 109.1625,7.05882353 109.399038,7.29411765 C109.753846,7.52941176 109.872115,8 109.872115,8.47058824 L109.280769,19.2941176 Z" id="Shape"></path>
                            <path d="M117.086538,11.8823529 L120.279808,7.41176471 C120.398077,7.17647059 120.634615,6.94117647 120.871154,6.82352941 C121.107692,6.70588235 121.344231,6.58823529 121.580769,6.58823529 C121.699038,6.58823529 121.817308,6.58823529 121.935577,6.58823529 L122.290385,6.70588235 L117.914423,12.9411765 L122.172115,19.2941176 L121.817308,19.4117647 C121.699038,19.4117647 121.580769,19.4117647 121.4625,19.4117647 C121.107692,19.4117647 120.871154,19.2941176 120.634615,19.1764706 C120.398077,19.0588235 120.161538,18.8235294 120.043269,18.5882353 L117.086538,14.2352941 L114.129808,18.5882353 C114.011538,18.8235294 113.775,19.0588235 113.538462,19.2941176 C113.301923,19.4117647 112.947115,19.5294118 112.592308,19.5294118 C112.355769,19.5294118 112.119231,19.5294118 111.882692,19.4117647 L116.140385,13.0588235 L112.000962,6.82352941 C112.2375,6.70588235 112.474038,6.70588235 112.710577,6.70588235 C113.065385,6.70588235 113.301923,6.70588235 113.538462,6.94117647 C113.775,7.17647059 113.893269,7.29411765 114.129808,7.52941176 L117.086538,11.8823529 Z" id="Shape"></path>
                        </g>
                    </g>
                </g>
            </g>
        </g>
    </g>
</svg>