<?xml version="1.0" encoding="UTF-8"?>
<svg width="190px" height="60px" viewBox="0 0 190 60" version="1.1" xmlns="http://www.w3.org/2000/svg" xmlns:xlink="http://www.w3.org/1999/xlink">
    <!-- Generator: Sketch 49.1 (51147) - http://www.bohemiancoding.com/sketch -->
    <title>istack training</title>
    <desc>Created with Sketch.</desc>
    <defs></defs>
    <g id="_Landing-Page" stroke="none" stroke-width="1" fill="none" fill-rule="evenodd" opacity="0.65">
        <g id="Landing-Page--istack-Network" transform="translate(-670.000000, -1312.000000)" fill="#7D8690" fill-rule="nonzero">
            <g id="What-is-the-iStack-Network" transform="translate(477.000000, 1118.000000)">
                <g id="Product-logos" transform="translate(0.000000, 194.000000)">
                    <g id="istack-training" transform="translate(193.333333, 0.000000)">
                        <path d="M57.83842,29.7621145 L47.5138933,23.6299559 L57.7330677,17.814978 C57.9437724,17.6035242 58.2598293,17.2863436 58.2598293,16.969163 C58.2598293,16.6519824 58.0491247,16.2290749 57.7330677,16.123348 L29.6040001,0.158590308 C29.3932954,-0.0528634361 28.8665339,-0.0528634361 28.6558292,0.158590308 L0.526761567,16.4405286 C0.31605694,16.6519824 0,16.969163 0,17.2863436 L0,30.0792952 C0,30.3964758 0.210704627,30.8193833 0.526761567,30.9251101 L10.5352313,36.5286344 L0.526761567,42.1321586 C0.31605694,42.3436123 1.87143302e-15,42.660793 1.87143302e-15,42.9779736 C1.87143302e-15,43.2951542 0.210704627,43.7180617 0.526761567,43.8237885 L28.6558292,59.8942731 C28.8665339,60 28.9718862,60 29.0772385,60 C29.2879431,60 29.3932954,60 29.4986477,59.8942731 L57.7330677,43.8237885 C57.9437724,43.6123348 58.2598293,43.2951542 58.2598293,43.0837004 L58.4705339,30.5022026 C58.3651816,30.2907489 58.2598293,29.9735683 57.83842,29.7621145 Z M29.0772385,2.06167401 L55.2046122,16.969163 L29.0772385,31.876652 L3.05521709,17.0748899 L29.0772385,2.06167401 Z M28.1290677,44.3524229 L1.89634164,29.4449339 L1.89634164,18.660793 L28.1290677,33.5682819 L28.1290677,44.3524229 Z M28.6558292,46.8898678 C28.8665339,47.1013216 29.2879431,47.1013216 29.6040001,46.8898678 L45.9336086,37.69163 L55.5206692,42.8722467 L29.0772385,57.7797357 L2.84451246,42.9779736 L12.3262207,37.5859031 L28.6558292,46.8898678 Z M56.3634877,40.969163 L48.1460072,36.6343612 L56.46884,31.876652 L56.3634877,40.969163 Z M30.1307616,44.4581498 L30.1307616,33.5682819 L45.722904,24.6872247 L55.3099645,30.2907489 L30.1307616,44.4581498 Z" id="Shape"></path>
                        <g id="Group" transform="translate(68.215623, 20.869565)">
                            <path d="M2.42977552,1.69565217 C2.42977552,2.33152174 1.90156345,2.86141304 1.26770897,2.86141304 C0.633854484,2.86141304 0.105642414,2.33152174 0.105642414,1.69565217 C0.105642414,1.05978261 0.633854484,0.529891304 1.26770897,0.529891304 C1.90156345,0.529891304 2.42977552,1.05978261 2.42977552,1.69565217 Z M0.316927242,13.1413043 L0.316927242,4.23913043 L2.21849069,4.23913043 L2.21849069,13.1413043 L0.316927242,13.1413043 Z" id="Shape"></path>
                            <path d="M12.9940169,2.54347826 L12.25452,4.23913043 C10.9868111,3.39130435 9.71910208,3.07336957 8.76832036,3.07336957 C7.6062538,3.07336957 6.86675691,3.60326087 6.86675691,4.3451087 C6.86675691,6.88858696 13.2053017,5.51086957 13.2053017,9.75 C13.2053017,11.8695652 11.3037383,13.1413043 8.76832036,13.1413043 C6.86675691,13.1413043 5.07083587,12.2934783 4.01441173,11.2336957 L4.85955104,9.43206522 C6.12726001,10.5978261 7.6062538,11.2336957 8.87396277,11.2336957 C10.3529566,11.2336957 11.0924535,10.7038043 11.0924535,9.75 C11.0924535,7.20652174 4.75390863,8.58423913 4.75390863,4.3451087 C4.75390863,2.22554348 6.54982967,0.953804348 9.0852476,0.953804348 C10.458599,1.37771739 11.9375928,1.9076087 12.9940169,2.54347826 Z" id="Shape"></path>
                            <path d="M20.4946283,12.5054348 C19.8607738,13.0353261 19.0156345,13.1413043 18.2761376,13.1413043 C17.0084286,13.1413043 15.7407197,12.2934783 15.7407197,10.5978261 L15.7407197,5.93478261 L14.4730107,5.93478261 L14.4730107,4.45108696 L15.7407197,4.45108696 L15.7407197,2.01358696 L17.6422831,2.01358696 L17.6422831,4.45108696 L20.3889859,4.45108696 L20.3889859,5.93478261 L17.6422831,5.93478261 L17.6422831,10.2798913 C17.6422831,11.2336957 17.9592104,11.5516304 18.5930649,11.5516304 C19.1212769,11.5516304 19.4382042,11.3396739 19.8607738,11.2336957 L20.4946283,12.5054348 Z" id="Shape"></path>
                            <path d="M27.6783125,12.0815217 C27.044458,12.9293478 26.0936762,13.2472826 24.6146825,13.2472826 C22.713119,13.2472826 21.44541,12.0815217 21.44541,10.4918478 C21.44541,8.90217391 22.713119,7.73641304 24.8259673,7.73641304 L27.57267,7.73641304 L27.57267,7.41847826 C27.57267,6.25271739 26.7275307,5.61684783 25.4598218,5.61684783 C24.6146825,5.61684783 23.6639007,5.93478261 22.713119,6.57065217 L21.8679797,5.29891304 C23.1356887,4.45108696 23.980828,4.13315217 25.6711066,4.13315217 C27.8895973,4.13315217 29.3685911,5.29891304 29.3685911,7.3125 L29.3685911,13.2472826 L27.4670276,13.2472826 L27.4670276,11.9755435 L27.6783125,11.9755435 L27.6783125,12.0815217 Z M27.6783125,9.96195652 L27.6783125,9.11413043 L25.2485369,9.11413043 C23.980828,9.11413043 23.3469735,9.43206522 23.3469735,10.2798913 C23.3469735,11.1277174 23.980828,11.5516304 25.1428945,11.5516304 C26.4106035,11.763587 27.4670276,10.9157609 27.6783125,9.96195652 Z" id="Shape"></path>
                            <path d="M39.4046204,5.72282609 L38.2425539,6.99456522 C37.6086994,6.35869565 36.7635601,6.04076087 35.7071359,6.04076087 C34.1224997,6.04076087 32.9604332,7.20652174 32.9604332,8.90217391 C32.9604332,10.7038043 34.1224997,11.763587 35.7071359,11.763587 C36.8692025,11.763587 37.8199842,11.4456522 38.4538387,10.5978261 L39.6159052,11.763587 C38.7707659,12.9293478 37.503057,13.3532609 35.8127783,13.3532609 C33.0660756,13.3532609 31.3757969,11.5516304 31.3757969,8.90217391 C31.3757969,6.14673913 33.2773604,4.23913043 35.8127783,4.23913043 C37.3974145,4.13315217 38.6651235,4.76902174 39.4046204,5.72282609 Z" id="Shape"></path>
                            <polygon id="Shape" points="43.5246746 10.5978261 43.5246746 13.1413043 41.6231111 13.1413043 41.6231111 0.741847826 43.5246746 0.741847826 43.5246746 8.26630435 47.5390863 4.23913043 49.757577 4.23913043 46.3770197 7.73641304 49.8632194 13.1413043 47.6447287 13.1413043 45.1093108 9.00815217"></polygon>
                            <polygon id="Shape" points="60.216176 3.17934783 60.216176 13.2472826 58.3146125 13.2472826 58.3146125 3.17934783 54.617128 3.17934783 54.617128 1.37771739 64.0193029 1.37771739 64.0193029 3.17934783"></polygon>
                            <path d="M66.7660056,6.04076087 C67.3998601,4.76902174 68.5619267,4.13315217 69.8296356,4.13315217 L69.8296356,6.04076087 C68.0337146,5.82880435 66.9772904,6.99456522 66.7660056,8.58423913 L66.7660056,13.2472826 L64.8644422,13.2472826 L64.8644422,4.23913043 L66.7660056,4.23913043 L66.7660056,6.04076087 Z" id="Shape"></path>
                            <path d="M76.4851077,12.0815217 C75.8512532,12.9293478 74.9004715,13.2472826 73.4214777,13.2472826 C71.5199142,13.2472826 70.2522053,12.0815217 70.2522053,10.4918478 C70.2522053,8.90217391 71.5199142,7.73641304 73.6327625,7.73641304 L76.3794653,7.73641304 L76.3794653,7.41847826 C76.3794653,6.25271739 75.534326,5.61684783 74.266617,5.61684783 C73.4214777,5.61684783 72.470696,5.93478261 71.5199142,6.57065217 L70.6747749,5.29891304 C71.9424839,4.45108696 72.7876232,4.13315217 74.4779018,4.13315217 C76.6963925,4.13315217 78.1753863,5.29891304 78.1753863,7.3125 L78.1753863,13.2472826 L76.2738229,13.2472826 L76.2738229,11.9755435 L76.4851077,11.9755435 L76.4851077,12.0815217 Z M76.4851077,9.96195652 L76.4851077,9.11413043 L74.0553322,9.11413043 C72.7876232,9.11413043 72.1537687,9.43206522 72.1537687,10.2798913 C72.1537687,11.1277174 72.7876232,11.5516304 73.9496898,11.5516304 C75.3230412,11.763587 76.2738229,10.9157609 76.4851077,9.96195652 Z" id="Shape"></path>
                            <path d="M83.0349374,1.69565217 C83.0349374,2.33152174 82.5067253,2.86141304 81.8728708,2.86141304 C81.2390163,2.86141304 80.7108043,2.33152174 80.7108043,1.69565217 C80.7108043,1.05978261 81.2390163,0.529891304 81.8728708,0.529891304 C82.5067253,0.635869565 83.0349374,1.05978261 83.0349374,1.69565217 Z M80.9220891,13.1413043 L80.9220891,4.23913043 L82.8236525,4.23913043 L82.8236525,13.1413043 L80.9220891,13.1413043 Z" id="Shape"></path>
                            <path d="M94.2330333,7.63043478 L94.2330333,13.2472826 L92.3314698,13.2472826 L92.3314698,8.16032609 C92.3314698,6.88858696 91.4863305,5.93478261 90.2186215,5.93478261 C88.7396277,5.93478261 87.788846,7.10054348 87.6832036,8.37228261 L87.6832036,13.1413043 L85.7816401,13.1413043 L85.7816401,4.23913043 L87.6832036,4.23913043 L87.6832036,6.04076087 C88.3170581,4.76902174 89.4791246,4.23913043 91.0637608,4.23913043 C92.9653243,4.13315217 94.2330333,5.51086957 94.2330333,7.63043478 Z" id="Shape"></path>
                            <path d="M98.8812995,1.69565217 C98.8812995,2.33152174 98.3530874,2.86141304 97.7192329,2.86141304 C97.0853784,2.86141304 96.5571664,2.33152174 96.5571664,1.69565217 C96.5571664,1.05978261 97.0853784,0.529891304 97.7192329,0.529891304 C98.4587298,0.635869565 98.8812995,1.05978261 98.8812995,1.69565217 Z M96.8740936,13.1413043 L96.8740936,4.23913043 L98.7756571,4.23913043 L98.7756571,13.1413043 L96.8740936,13.1413043 Z" id="Shape"></path>
                            <path d="M110.185038,7.63043478 L110.185038,13.2472826 L108.283474,13.2472826 L108.283474,8.16032609 C108.283474,6.88858696 107.438335,5.93478261 106.170626,5.93478261 C104.691632,5.93478261 103.740851,7.10054348 103.635208,8.37228261 L103.635208,13.1413043 L101.733645,13.1413043 L101.733645,4.23913043 L103.635208,4.23913043 L103.635208,6.04076087 C104.269063,4.76902174 105.431129,4.23913043 107.015765,4.23913043 C108.917329,4.13315217 110.185038,5.51086957 110.185038,7.63043478 Z" id="Shape"></path>
                            <path d="M120.643637,12.1875 C120.643637,14.7309783 118.847716,16.3206522 115.995371,16.3206522 C114.516377,16.3206522 113.459953,15.7907609 112.297886,15.1548913 L113.143025,13.6711957 C113.988165,14.3070652 114.938946,14.625 115.995371,14.625 C117.791292,14.625 118.847716,13.6711957 118.847716,12.0815217 L118.847716,10.9157609 C118.213861,11.8695652 117.263079,12.3994565 115.784086,12.3994565 C113.35431,12.3994565 111.769674,10.5978261 111.769674,8.05434783 C111.769674,5.51086957 113.35431,3.70923913 115.784086,3.70923913 C117.263079,3.70923913 118.213861,4.23913043 118.847716,5.19293478 L118.847716,3.70923913 L120.749279,3.70923913 L120.749279,11.9755435 L120.643637,11.9755435 L120.643637,12.1875 Z M118.742073,8.37228261 C118.742073,6.7826087 117.580007,5.61684783 116.206655,5.61684783 C114.622019,5.61684783 113.671237,6.7826087 113.671237,8.37228261 C113.671237,9.96195652 114.833304,11.1277174 116.206655,11.1277174 C117.791292,11.2336957 118.742073,10.173913 118.742073,8.37228261 Z" id="Shape"></path>
                        </g>
                    </g>
                </g>
            </g>
        </g>
    </g>
</svg>