<?xml version="1.0" encoding="UTF-8"?>
<svg width="111px" height="38px" viewBox="0 0 111 38" version="1.1" xmlns="http://www.w3.org/2000/svg" xmlns:xlink="http://www.w3.org/1999/xlink">
    <!-- Generator: Sketch 49.1 (51147) - http://www.bohemiancoding.com/sketch -->
    <title>stm</title>
    <desc>Created with Sketch.</desc>
    <defs></defs>
    <g id="_Landing-Page" stroke="none" stroke-width="1" fill="none" fill-rule="evenodd" opacity="0.65">
        <g id="Landing-Page--istack-Network" transform="translate(-477.000000, -1322.000000)" fill="#7D8690" fill-rule="nonzero">
            <g id="What-is-the-iStack-Network" transform="translate(477.000000, 1118.000000)">
                <g id="Product-logos" transform="translate(0.000000, 194.000000)">
                    <g id="stm" transform="translate(0.000000, 10.000000)">
                        <path d="M0.645920573,33.6414194 L4.52144401,27.3788163 C7.91252701,29.6269302 11.6265703,30.7509872 14.694693,30.7509872 C16.4709746,30.7509872 17.2783753,30.1889587 17.2783753,29.1451915 L17.2783753,29.0649017 C17.2783753,27.9408447 15.6635739,27.459106 12.5147111,26.5759184 C6.70142594,25.0504125 2.01850179,23.1234577 2.01850179,17.1820137 L2.01850179,17.1017239 C2.01850179,10.8391208 7.02438623,7.3866601 13.8872923,7.3866601 C18.1665161,7.3866601 22.6879601,8.67129664 26.0790431,10.8391208 L22.52648,17.3425933 C19.4583572,15.6565078 16.1480143,14.6127406 13.8065522,14.6127406 C12.1917508,14.6127406 11.3843501,15.1747691 11.3843501,16.0579567 L11.3843501,16.1382465 C11.3843501,17.2623035 13.0798916,17.824332 16.2287544,18.7075196 C22.0420395,20.3133153 26.7249637,22.3205599 26.7249637,28.0211345 L26.7249637,28.1014243 C26.7249637,34.524607 21.8805594,37.8967779 14.694693,37.8967779 C9.60806852,37.9770677 4.76366422,36.6121414 0.645920573,33.6414194 Z" id="Shape"></path>
                        <path d="M31.0849276,28.2620039 L31.0849276,16.2988261 L27.6131045,16.2988261 L27.6131045,7.94868859 L31.0849276,7.94868859 L31.0849276,0.481738702 L41.5003968,0.481738702 L41.5003968,7.94868859 L48.3633029,7.94868859 L48.3633029,16.2185363 L41.5003968,16.2185363 L41.5003968,26.1744695 C41.5003968,28.2620039 42.3885376,29.1451915 44.3262993,29.1451915 C45.6988805,29.1451915 46.9907217,28.7437426 48.2825628,28.1817141 L48.2825628,36.2909822 C46.4255412,37.3347494 44.003339,37.9770677 41.0966964,37.9770677 C34.7989708,37.9770677 31.0849276,35.2472151 31.0849276,28.2620039 Z" id="Shape"></path>
                        <path d="M50.6240249,7.94868859 L61.0394941,7.94868859 L61.0394941,11.9631778 C62.9772558,9.55448426 65.6416782,7.30637032 69.8401619,7.30637032 C73.7964254,7.30637032 76.7838081,9.07274556 78.3986095,12.1237573 C80.9822918,9.15303535 83.9696744,7.30637032 88.2488982,7.30637032 C94.5466238,7.30637032 98.3414072,11.2405697 98.3414072,18.0652013 L98.3414072,37.3347494 L87.9259379,37.3347494 L87.9259379,21.3570825 C87.9259379,18.1454911 86.3111365,16.4594057 83.8889344,16.4594057 C81.4667322,16.4594057 79.6097106,18.1454911 79.6097106,21.3570825 L79.6097106,37.3347494 L69.1942413,37.3347494 L69.1942413,21.3570825 C69.1942413,18.1454911 67.5794399,16.4594057 65.1572378,16.4594057 C62.7350356,16.4594057 60.958754,18.1454911 60.958754,21.3570825 L60.958754,37.3347494 L50.6240249,37.3347494 L50.6240249,7.94868859 Z" id="Shape"></path>
                        <polygon id="Shape" points="99.9562086 26.736498 110.775378 26.736498 110.775378 37.3347494 99.9562086 37.3347494"></polygon>
                    </g>
                </g>
            </g>
        </g>
    </g>
</svg>